<?xml version="1.0" encoding="UTF-8" standalone="no"?>
<!-- Created with Inkscape (http://www.inkscape.org/) -->

<svg
   xmlns:dc="http://purl.org/dc/elements/1.1/"
   xmlns:cc="http://creativecommons.org/ns#"
   xmlns:rdf="http://www.w3.org/1999/02/22-rdf-syntax-ns#"
   xmlns:svg="http://www.w3.org/2000/svg"
   xmlns="http://www.w3.org/2000/svg"
   xmlns:sodipodi="http://sodipodi.sourceforge.net/DTD/sodipodi-0.dtd"
   xmlns:inkscape="http://www.inkscape.org/namespaces/inkscape"
   width="161.51457"
   height="161.51457"
   id="svg2"
   version="1.1"
   inkscape:version="0.91 r13725"
   sodipodi:docname="_img_ldr.svg">
  <defs
     id="defs4">
    <inkscape:path-effect
       effect="skeletal"
       id="path-effect3778"
       is_visible="true"
       pattern="M 0,0 1,0"
       copytype="single_stretched"
       prop_scale="1"
       scale_y_rel="false"
       spacing="0"
       normal_offset="0"
       tang_offset="0"
       prop_units="false"
       vertical_pattern="false"
       fuse_tolerance="0" />
    <inkscape:path-effect
       effect="skeletal"
       id="path-effect3774"
       is_visible="true"
       pattern="M 0,0 1,0"
       copytype="single_stretched"
       prop_scale="1"
       scale_y_rel="false"
       spacing="0"
       normal_offset="0"
       tang_offset="0"
       prop_units="false"
       vertical_pattern="false"
       fuse_tolerance="0" />
  </defs>
  <sodipodi:namedview
     id="base"
     pagecolor="#ffffff"
     bordercolor="#666666"
     borderopacity="1.0"
     inkscape:pageopacity="0.0"
     inkscape:pageshadow="2"
     inkscape:zoom="1.9961538"
     inkscape:cx="75.754007"
     inkscape:cy="20.48079"
     inkscape:document-units="px"
     inkscape:current-layer="layer1"
     showgrid="true"
     fit-margin-top="0"
     fit-margin-left="0"
     fit-margin-right="0"
     fit-margin-bottom="0"
     inkscape:window-width="1680"
     inkscape:window-height="987"
     inkscape:window-x="-8"
     inkscape:window-y="22"
     inkscape:window-maximized="1" />
  <metadata
     id="metadata7">
    <rdf:RDF>
      <cc:Work
         rdf:about="">
        <dc:format>image/svg+xml</dc:format>
        <dc:type
           rdf:resource="http://purl.org/dc/dcmitype/StillImage" />
        <dc:title></dc:title>
      </cc:Work>
    </rdf:RDF>
  </metadata>
  <g
     inkscape:label="Layer 1"
     inkscape:groupmode="layer"
     id="layer1"
     transform="translate(208.06493,-163.85852)">
    <g
       id="g4150">
      <circle
         id="path3787"
         style="fill:#333333;fill-opacity:1;fill-rule:evenodd;stroke:none"
         cx="-127.30764"
         cy="244.61581"
         r="80.757286" />
      <g
         style="fill:#f0a87c;stroke:none;fill-opacity:1"
         transform="matrix(0.3652029,0,0,0.36522961,55.293857,42.877806)"
         id="g3848">
        <path
           inkscape:connector-curvature="0"
           style="fill:#f0a87c;fill-opacity:1;fill-rule:evenodd;stroke:none"
           d="m -637.625,714.28125 c 1.22393,-1.23187 2.56161,-2.36413 4,-3.34375 1.43839,-0.97962 2.97752,-1.80978 4.59375,-2.5 1.61623,-0.69022 3.30504,-1.23007 5.0625,-1.59375 1.75746,-0.36368 3.57542,-0.5625 5.4375,-0.5625 l 2.03125,0 222.9375,-0.625 0.0312,0 c 1.24659,0 2.45194,-0.13516 3.625,-0.375 1.17306,-0.23984 2.29898,-0.57497 3.375,-1.03125 1.07602,-0.45628 2.10703,-1.03819 3.0625,-1.6875 0.95547,-0.64931 1.84485,-1.36857 2.65625,-2.1875 0.8114,-0.81893 1.54368,-1.72236 2.1875,-2.6875 0.64382,-0.96514 1.20352,-2.0058 1.65625,-3.09375 0.45273,-1.08795 0.79313,-2.21889 1.03125,-3.40625 0.23812,-1.18736 0.375,-2.42415 0.375,-3.6875 0,-1.26335 -0.13688,-2.49929 -0.375,-3.6875 -0.23812,-1.18821 -0.57852,-2.31683 -1.03125,-3.40625 -0.45273,-1.08942 -1.01243,-2.12678 -1.65625,-3.09375 -0.64382,-0.96697 -1.3761,-1.86662 -2.1875,-2.6875 -0.8114,-0.82088 -1.70078,-1.56761 -2.65625,-2.21875 -0.95547,-0.65114 -1.98648,-1.22976 -3.0625,-1.6875 -1.07602,-0.45774 -2.20194,-0.79055 -3.375,-1.03125 -1.17306,-0.2407 -2.37841,-0.375 -3.625,-0.375 l -225,0.65625 -0.0312,0 c -1.86623,-7.5e-4 -3.67692,-0.19755 -5.4375,-0.5625 -1.76058,-0.36495 -3.47528,-0.90192 -5.09375,-1.59375 -1.61847,-0.69183 -3.15386,-1.51861 -4.59375,-2.5 -1.43989,-0.98139 -2.77515,-2.11012 -4,-3.34375 -1.22485,-1.23363 -2.33916,-2.58269 -3.3125,-4.03125 -0.97334,-1.44856 -1.81464,-2.99884 -2.5,-4.625 -0.68536,-1.62616 -1.20159,-3.32731 -1.5625,-5.09375 -0.36091,-1.76644 -0.5625,-3.59934 -0.5625,-5.46875 0,-1.86941 0.2016,-3.70215 0.5625,-5.46875 0.3609,-1.7666 0.87731,-3.46736 1.5625,-5.09375 0.68519,-1.62639 1.52713,-3.1762 2.5,-4.625 0.97287,-1.4488 2.08857,-2.79743 3.3125,-4.03125 1.22393,-1.23382 2.56161,-2.3623 4,-3.34375 1.43839,-0.98145 2.97752,-1.80831 4.59375,-2.5 1.61623,-0.69169 3.30504,-1.22921 5.0625,-1.59375 1.75746,-0.36454 3.57542,-0.5625 5.4375,-0.5625 l 0.0625,0 0.28125,0 224.75,-0.625 c 1.2466,0 2.45108,-0.13545 3.625,-0.375 1.17392,-0.23955 2.32876,-0.57498 3.40625,-1.03125 1.07749,-0.45627 2.07395,-1.03732 3.03125,-1.6875 0.9573,-0.65018 1.87415,-1.36623 2.6875,-2.1875 0.81335,-0.82127 1.54185,-1.74921 2.1875,-2.71875 0.64565,-0.96954 1.20206,-1.99876 1.65625,-3.09375 0.45419,-1.09499 0.79228,-2.23988 1.03125,-3.4375 0.23897,-1.19762 0.375,-2.44132 0.375,-3.71875 0,-1.27743 -0.13603,-2.52028 -0.375,-3.71875 -0.23897,-1.19847 -0.57706,-2.34105 -1.03125,-3.4375 -0.45419,-1.09645 -1.0106,-2.15363 -1.65625,-3.125 -0.64565,-0.97137 -1.37415,-1.86428 -2.1875,-2.6875 -0.81335,-0.82322 -1.7302,-1.56674 -2.6875,-2.21875 -0.9573,-0.65201 -1.95376,-1.22976 -3.03125,-1.6875 -1.07749,-0.45774 -2.23233,-0.79085 -3.40625,-1.03125 -1.17392,-0.2404 -2.3784,-0.375 -3.625,-0.375 l -224.75,-0.625 -0.28125,0 -0.0625,0 c -1.86208,0 -3.68004,-0.19882 -5.4375,-0.5625 -1.75746,-0.36368 -3.44627,-0.90353 -5.0625,-1.59375 -1.61623,-0.69022 -3.15536,-1.52038 -4.59375,-2.5 -1.43839,-0.97962 -2.77607,-2.11188 -4,-3.34375 -1.22393,-1.23187 -2.33963,-2.55303 -3.3125,-4 -0.97287,-1.44697 -1.81481,-3.00007 -2.5,-4.625 -0.68519,-1.62493 -1.2016,-3.32801 -1.5625,-5.09375 -0.3609,-1.76574 -0.5625,-3.59934 -0.5625,-5.46875 0,-1.86941 0.20159,-3.70231 0.5625,-5.46875 0.36091,-1.76644 0.87714,-3.46759 1.5625,-5.09375 0.68536,-1.62616 1.52666,-3.17645 2.5,-4.625 0.97334,-1.44855 2.08765,-2.79762 3.3125,-4.03125 1.22485,-1.23363 2.56011,-2.36236 4,-3.34375 1.43989,-0.98139 2.97528,-1.80817 4.59375,-2.5 1.61847,-0.69183 3.33317,-1.2288 5.09375,-1.59375 1.76058,-0.36495 3.57127,-0.56175 5.4375,-0.5625 l 0.0312,0 225,0.625 c 1.24659,0 2.45194,-0.13516 3.625,-0.375 1.17306,-0.23984 2.29898,-0.57497 3.375,-1.03125 1.07602,-0.45628 2.10703,-1.03819 3.0625,-1.6875 0.95547,-0.64931 1.84485,-1.36857 2.65625,-2.1875 0.8114,-0.81893 1.54368,-1.72236 2.1875,-2.6875 0.64382,-0.96514 1.20352,-2.0058 1.65625,-3.09375 0.45273,-1.08795 0.79313,-2.21889 1.03125,-3.40625 0.23812,-1.18736 0.375,-2.42415 0.375,-3.6875 0,-1.26335 -0.13688,-2.49929 -0.375,-3.6875 -0.23812,-1.18821 -0.57852,-2.31683 -1.03125,-3.40625 -0.45273,-1.08942 -1.01243,-2.12678 -1.65625,-3.09375 -0.64382,-0.96697 -1.3761,-1.86662 -2.1875,-2.6875 -0.8114,-0.82088 -1.70078,-1.56761 -2.65625,-2.21875 -0.95547,-0.65114 -1.98648,-1.22976 -3.0625,-1.6875 -1.07602,-0.45774 -2.20194,-0.79055 -3.375,-1.03125 -1.17306,-0.2407 -2.37841,-0.375 -3.625,-0.375 l -0.0312,0 -222.90625,-0.625 -0.0312,0.0312 -2.03125,0 c -1.86208,0 -3.68004,-0.19796 -5.4375,-0.5625 -1.75746,-0.36454 -3.44627,-0.90206 -5.0625,-1.59375 -1.61623,-0.69169 -3.15536,-1.51855 -4.59375,-2.5 -1.43839,-0.98145 -2.77607,-2.10993 -4,-3.34375 -1.22393,-1.23382 -2.33963,-2.58245 -3.3125,-4.03125 -0.97287,-1.4488 -1.81481,-2.99861 -2.5,-4.625 -0.68519,-1.62639 -1.2016,-3.32715 -1.5625,-5.09375 -0.3609,-1.7666 -0.5625,-3.59934 -0.5625,-5.46875 0,-1.86941 0.20158,-3.70233 0.5625,-5.46875 0.36092,-1.76642 0.87712,-3.46763 1.5625,-5.09375 0.68538,-1.62612 1.52664,-3.17649 2.5,-4.625 0.97336,-1.44851 2.08764,-2.79765 3.3125,-4.03125 1.22486,-1.2336 2.5601,-2.33112 4,-3.3125 1.4399,-0.98138 2.97529,-1.8394 4.59375,-2.53125 1.61846,-0.69185 3.3332,-1.22873 5.09375,-1.59375 1.76055,-0.36502 3.57133,-0.56162 5.4375,-0.5625 l 0.0312,0 224.96875,0.625 0.0312,0 c 1.24477,-0.002 2.45293,-0.13372 3.625,-0.375 1.17207,-0.24128 2.29932,-0.60541 3.375,-1.0625 1.07568,-0.45709 2.10689,-1.00667 3.0625,-1.65625 0.95561,-0.64958 1.8444,-1.40002 2.65625,-2.21875 0.81185,-0.81873 1.54308,-1.6917 2.1875,-2.65625 0.64442,-0.96455 1.20295,-2.00671 1.65625,-3.09375 0.4533,-1.08704 0.79276,-2.22006 1.03125,-3.40625 0.23849,-1.18619 0.375,-2.42548 0.375,-3.6875 0,-1.26335 -0.13603,-2.50014 -0.375,-3.6875 -0.23897,-1.18736 -0.57706,-2.3183 -1.03125,-3.40625 -0.45419,-1.08795 -1.0106,-2.12861 -1.65625,-3.09375 -0.64565,-0.96514 -1.37415,-1.86857 -2.1875,-2.6875 -0.81335,-0.81893 -1.7302,-1.5382 -2.6875,-2.1875 -0.9573,-0.6493 -1.95376,-1.23122 -3.03125,-1.6875 -1.07749,-0.45628 -2.23233,-0.79141 -3.40625,-1.03125 -1.17392,-0.23984 -2.3784,-0.375 -3.625,-0.375 l -224.5625,-0.65625 -0.1875,0.0312 -0.34375,0 c -1.86208,0 -3.68004,-0.19796 -5.4375,-0.5625 -1.75746,-0.36454 -3.44627,-0.90206 -5.0625,-1.59375 -1.61623,-0.69169 -3.15536,-1.51855 -4.59375,-2.5 -0.97917,-0.66811 -1.83625,-1.49342 -2.71875,-2.28125 -46.56667,39.0018 -76.21875,97.5376 -76.21875,163.03125 0,64.89688 29.16483,122.90739 75,161.90625 z"
           id="path3844" />
        <path
           inkscape:connector-curvature="0"
           style="fill:#f0a87c;fill-opacity:1;fill-rule:evenodd;stroke:none"
           d="m -500,339.75 c -48.63215,0 -93.30286,16.52723 -129.125,44 0.16181,0.11786 0.30292,0.26252 0.46875,0.375 0.9573,0.6493 1.95376,1.23122 3.03125,1.6875 1.07749,0.45628 2.23233,0.79141 3.40625,1.03125 1.17392,0.23984 2.37841,0.375 3.625,0.375 l 0.0937,0 225,0.625 0.0312,0 c 1.86027,0.002 3.68103,0.1965 5.4375,0.5625 1.75647,0.366 3.44661,0.90124 5.0625,1.59375 1.61589,0.69251 3.15522,1.54953 4.59375,2.53125 1.43853,0.98172 2.77562,2.07889 4,3.3125 1.22438,1.23361 2.33904,2.58306 3.3125,4.03125 0.97346,1.44819 1.81425,2.99954 2.5,4.625 0.68575,1.62546 1.20123,3.32832 1.5625,5.09375 0.36127,1.76543 0.5625,3.60067 0.5625,5.46875 0,1.86941 -0.20075,3.70216 -0.5625,5.46875 -0.36175,1.76659 -0.87585,3.46736 -1.5625,5.09375 -0.68665,1.62639 -1.5253,3.1762 -2.5,4.625 -0.9747,1.4488 -2.08662,2.79743 -3.3125,4.03125 -1.22588,1.23382 -2.59103,2.3623 -4.03125,3.34375 -1.44022,0.98145 -2.97605,1.80831 -4.59375,2.5 -1.6177,0.69169 -3.30418,1.22921 -5.0625,1.59375 -1.75832,0.36454 -3.57541,0.5625 -5.4375,0.5625 l -225,-0.65625 c -1.25308,6e-4 -2.47793,0.13397 -3.65625,0.375 -1.17832,0.24103 -2.29483,0.60465 -3.375,1.0625 -1.08017,0.45785 -2.13513,1.00516 -3.09375,1.65625 -0.95862,0.65109 -1.84257,1.39802 -2.65625,2.21875 -0.81368,0.82073 -1.54215,1.72072 -2.1875,2.6875 -0.64535,0.96678 -1.20262,2.00452 -1.65625,3.09375 -0.45363,1.08923 -0.79274,2.21816 -1.03125,3.40625 -0.23851,1.18809 -0.375,2.42415 -0.375,3.6875 0,1.26335 0.13603,2.50014 0.375,3.6875 0.23897,1.18736 0.57706,2.3183 1.03125,3.40625 0.45419,1.08795 1.0106,2.12861 1.65625,3.09375 0.64565,0.96514 1.37415,1.86857 2.1875,2.6875 0.81335,0.81893 1.7302,1.53819 2.6875,2.1875 0.9573,0.64931 1.95376,1.23122 3.03125,1.6875 1.07749,0.45628 2.23233,0.79141 3.40625,1.03125 1.17392,0.23984 2.37841,0.375 3.625,0.375 l 0.0312,0 224.96875,0.625 c 1.86208,0 3.68004,0.19796 5.4375,0.5625 1.75746,0.36454 3.44627,0.90206 5.0625,1.59375 1.61623,0.69169 3.15536,1.51855 4.59375,2.5 1.43839,0.98145 2.77607,2.10993 4,3.34375 1.22393,1.23382 2.33963,2.58245 3.3125,4.03125 0.97287,1.4488 1.81481,2.99861 2.5,4.625 0.68519,1.62639 1.2016,3.32715 1.5625,5.09375 0.3609,1.7666 0.5625,3.59934 0.5625,5.46875 0,1.86941 -0.2016,3.70301 -0.5625,5.46875 -0.3609,1.76574 -0.87731,3.46882 -1.5625,5.09375 -0.68519,1.62493 -1.52713,3.17803 -2.5,4.625 -0.97287,1.44697 -2.08857,2.76813 -3.3125,4 -1.22393,1.23187 -2.56161,2.36413 -4,3.34375 -1.43839,0.97962 -2.97752,1.80978 -4.59375,2.5 -1.61623,0.69022 -3.30504,1.23007 -5.0625,1.59375 -1.75746,0.36368 -3.57542,0.5625 -5.4375,0.5625 l -0.0312,0 -224.96875,-0.625 -0.0312,0 c -1.25117,0.003 -2.47898,0.1326 -3.65625,0.375 -1.17727,0.2424 -2.29519,0.60385 -3.375,1.0625 -1.07981,0.45865 -2.10373,1.00488 -3.0625,1.65625 -0.95877,0.65137 -1.87334,1.39819 -2.6875,2.21875 -0.81416,0.82056 -1.54152,1.72128 -2.1875,2.6875 -0.64598,0.96622 -1.20203,2.0054 -1.65625,3.09375 -0.45422,1.08835 -0.79235,2.2193 -1.03125,3.40625 -0.2389,1.18695 -0.375,2.42548 -0.375,3.6875 0,1.26335 0.13603,2.50014 0.375,3.6875 0.23897,1.18736 0.57706,2.3183 1.03125,3.40625 0.45419,1.08795 1.0106,2.12861 1.65625,3.09375 0.64565,0.96514 1.37415,1.86857 2.1875,2.6875 0.81335,0.81893 1.7302,1.5382 2.6875,2.1875 0.9573,0.6493 1.95376,1.23122 3.03125,1.6875 1.07749,0.45628 2.23233,0.79141 3.40625,1.03125 1.17392,0.23984 2.37841,0.375 3.625,0.375 l 0.0937,0 225,0.625 0.0312,0 c 1.86027,0.002 3.68103,0.19587 5.4375,0.5625 1.75647,0.36663 3.44661,0.89982 5.0625,1.59375 1.61589,0.69393 3.15522,1.54717 4.59375,2.53125 1.43853,0.98408 2.77562,2.10667 4,3.34375 1.22438,1.23708 2.33904,2.57831 3.3125,4.03125 0.97346,1.45294 1.81425,3.02461 2.5,4.65625 0.68575,1.63164 1.20123,3.32055 1.5625,5.09375 0.36127,1.7732 0.5625,3.62239 0.5625,5.5 0,1.87761 -0.20123,3.6964 -0.5625,5.46875 -0.36127,1.77235 -0.87674,3.49482 -1.5625,5.125 -0.68576,1.63018 -1.52654,3.1739 -2.5,4.625 -0.97346,1.4511 -2.08811,2.82737 -3.3125,4.0625 -1.22439,1.23513 -2.56147,2.33025 -4,3.3125 -1.43853,0.98225 -2.97786,1.83878 -4.59375,2.53125 -1.61589,0.69247 -3.30603,1.22797 -5.0625,1.59375 -1.75647,0.36578 -3.57723,0.56031 -5.4375,0.5625 l -0.0312,0 -225,0.65625 -0.375,0 c -1.22973,0.0193 -2.43674,0.15336 -3.59375,0.40625 -1.15701,0.25289 -2.25136,0.63002 -3.3125,1.09375 -1.06114,0.46373 -2.08911,1.03568 -3.03125,1.6875 -0.94214,0.65182 -1.82501,1.37033 -2.625,2.1875 -0.79999,0.81717 -1.52155,1.72773 -2.15625,2.6875 -0.6347,0.95977 -1.17873,1.98288 -1.625,3.0625 -0.44627,1.07962 -0.79654,2.19827 -1.03125,3.375 -0.23471,1.17673 -0.34375,2.40516 -0.34375,3.65625 0,1.26202 0.1361,2.50141 0.375,3.6875 0.2389,1.18609 0.57702,2.31937 1.03125,3.40625 0.45423,1.08688 1.01027,2.12937 1.65625,3.09375 0.64598,0.96438 1.37334,1.83765 2.1875,2.65625 0.81416,0.8186 1.72873,1.56921 2.6875,2.21875 0.95877,0.64954 1.98269,1.19906 3.0625,1.65625 1.07981,0.45719 2.19773,0.82094 3.375,1.0625 1.17727,0.24156 2.40508,0.37236 3.65625,0.375 0.0106,2e-5 0.0207,0 0.0312,0 l 224.96875,-0.625 0.0312,0 c 1.86208,0 3.68004,0.19796 5.4375,0.5625 1.75746,0.36454 3.44627,0.90206 5.0625,1.59375 1.61623,0.69169 3.15536,1.51855 4.59375,2.5 1.43839,0.98145 2.77607,2.10993 4,3.34375 1.22393,1.23382 2.33963,2.58245 3.3125,4.03125 0.97287,1.4488 1.81481,2.99861 2.5,4.625 0.68519,1.62639 1.2016,3.32715 1.5625,5.09375 0.3609,1.7666 0.5625,3.59934 0.5625,5.46875 0,1.86941 -0.2016,3.70301 -0.5625,5.46875 -0.3609,1.76574 -0.87731,3.46882 -1.5625,5.09375 -0.68519,1.62493 -1.52713,3.17803 -2.5,4.625 -0.97287,1.44697 -2.08857,2.76813 -3.3125,4 -1.22393,1.23187 -2.56161,2.36413 -4,3.34375 -1.43839,0.97962 -2.97752,1.80978 -4.59375,2.5 -1.61623,0.69022 -3.30504,1.23007 -5.0625,1.59375 -1.75746,0.36368 -3.57542,0.5625 -5.4375,0.5625 l -224.96875,0.65625 -0.34375,0 c -1.22788,0.0214 -2.43861,0.1528 -3.59375,0.40625 -1.15514,0.25345 -2.25317,0.63067 -3.3125,1.09375 -1.05933,0.46308 -2.05955,1.03723 -3,1.6875 -0.6288,0.43478 -1.18295,0.95865 -1.75,1.46875 36.04146,28.09773 81.2597,44.96875 130.5,44.96875 117.42417,0 212.625,-95.16958 212.625,-212.59375 0,-117.42417 -95.20083,-212.625 -212.625,-212.625 z"
           id="path3832" />
      </g>
      <g
         style="fill:#4d4d4d"
         transform="matrix(0.31060495,0,0,0.31060495,-144.88584,225.83829)"
         id="g3859">
        <circle
           style="fill:#4d4d4d;fill-opacity:1;fill-rule:evenodd;stroke:none"
           id="path3855"
           transform="translate(215.41426,27.052023)"
           cx="-372.71677"
           cy="33.402645"
           r="23.044315" />
        <circle
           transform="translate(627.20617,27.052023)"
           id="path3857"
           style="fill:#4d4d4d;fill-opacity:1;fill-rule:evenodd;stroke:none"
           cx="-372.71677"
           cy="33.402645"
           r="23.044315" />
      </g>
    </g>
  </g>
</svg>
