<?xml version="1.0" encoding="UTF-8" standalone="no"?>
<!-- Generator: Adobe Illustrator 12.0.0, SVG Export Plug-In . SVG Version: 6.00 Build 51448)  -->

<svg
   xmlns:dc="http://purl.org/dc/elements/1.1/"
   xmlns:cc="http://creativecommons.org/ns#"
   xmlns:rdf="http://www.w3.org/1999/02/22-rdf-syntax-ns#"
   xmlns:svg="http://www.w3.org/2000/svg"
   xmlns="http://www.w3.org/2000/svg"
   xmlns:sodipodi="http://sodipodi.sourceforge.net/DTD/sodipodi-0.dtd"
   xmlns:inkscape="http://www.inkscape.org/namespaces/inkscape"
   version="1.1"
   id="Layer_1"
   sodipodi:docname="_img_tactdown.svg"
   inkscape:version="0.91 r13725"
   width="177.65207"
   height="150.60641"
   viewBox="0 0 177.65207 150.60641"
   overflow="visible"
   enable-background="new 0 0 400 330"
   xml:space="preserve"
   style="overflow:visible"><metadata
     id="metadata3985"><rdf:RDF><cc:Work
         rdf:about=""><dc:format>image/svg+xml</dc:format><dc:type
           rdf:resource="http://purl.org/dc/dcmitype/StillImage" /><dc:title></dc:title></cc:Work></rdf:RDF></metadata><defs
     id="defs3651"><inkscape:perspective
       inkscape:persp3d-origin="82.016502 : 35.739666 : 1"
       sodipodi:type="inkscape:persp3d"
       inkscape:vp_z="164.033 : 53.609499 : 1"
       inkscape:vp_y="0 : 999.99997 : 0"
       inkscape:vp_x="0 : 53.609499 : 1"
       id="perspective3567" /><inkscape:perspective
       inkscape:persp3d-origin="0.5 : 0.33333332 : 1"
       sodipodi:type="inkscape:persp3d"
       inkscape:vp_z="1 : 0.49999998 : 1"
       inkscape:vp_y="0 : 999.99997 : 0"
       inkscape:vp_x="0 : 0.49999998 : 1"
       id="perspective5121" /><inkscape:perspective
       inkscape:persp3d-origin="0.5 : 0.33333332 : 1"
       sodipodi:type="inkscape:persp3d"
       inkscape:vp_z="1 : 0.49999998 : 1"
       inkscape:vp_y="0 : 999.99997 : 0"
       inkscape:vp_x="0 : 0.49999998 : 1"
       id="perspective2950" /><inkscape:perspective
       inkscape:persp3d-origin="0.5 : 0.33333332 : 1"
       sodipodi:type="inkscape:persp3d"
       inkscape:vp_z="1 : 0.49999998 : 1"
       inkscape:vp_y="0 : 999.99997 : 0"
       inkscape:vp_x="0 : 0.49999998 : 1"
       id="perspective3212" /></defs><sodipodi:namedview
     borderopacity="1"
     showgrid="false"
     inkscape:cx="109.39972"
     inkscape:cy="42.991241"
     inkscape:zoom="2.8284271"
     gridtolerance="10"
     inkscape:window-maximized="1"
     bordercolor="#666666"
     guidetolerance="10"
     objecttolerance="10"
     inkscape:pageshadow="2"
     inkscape:pageopacity="0"
     inkscape:window-height="987"
     inkscape:window-width="1680"
     inkscape:window-y="22"
     inkscape:window-x="-8"
     inkscape:current-layer="Layer_1"
     pagecolor="#ffffff"
     id="namedview3561"
     fit-margin-top="0"
     fit-margin-left="0"
     fit-margin-right="0"
     fit-margin-bottom="0" /><path
     d="m 154.53448,44.934372 0,4.362445 c -0.30348,4.11113 -10.38879,4.087421 -10.68799,0 l 0,-4.362445 c 0.30394,4.101647 10.38499,4.11113 10.68799,0 z"
     id="path3661"
     style="fill:#a06e6e"
     inkscape:connector-curvature="0" /><path
     d="m 154.53448,44.915405 0,0.01897 c -0.30348,4.11113 -10.38405,4.101647 -10.68799,0 0.34188,-4.068454 10.31338,-4.087421 10.68799,-0.01897 z"
     id="path3663"
     style="fill:#a06e6e"
     inkscape:connector-curvature="0" /><path
     d="m 154.53448,44.934372 0,4.362445 c -0.30348,4.11113 -10.38879,4.087421 -10.68799,0 l 0,-4.362445 c 0.30394,4.101647 10.38499,4.11113 10.68799,0 z"
     id="path3665"
     style="fill:#2e3436"
     inkscape:connector-curvature="0" /><path
     d="m 154.53448,44.915405 0,0.01897 c -0.30348,4.11113 -10.38405,4.101647 -10.68799,0 0.34188,-4.068454 10.31338,-4.087421 10.68799,-0.01897 z"
     id="path3667"
     style="fill:#2e3436"
     inkscape:connector-curvature="0" /><path
     d="m 94.167247,79.795998 0,4.362444 c -0.350893,4.087422 -10.337098,4.096905 -10.68799,0 l 0,-4.362444 c 0.34615,4.11113 10.346581,4.092163 10.68799,0 z"
     id="path3669"
     style="fill:#2e3436"
     inkscape:connector-curvature="0" /><path
     d="m 83.479257,79.795998 c 0.341408,-4.087422 10.346581,-4.077938 10.68799,0 -0.341409,4.092163 -10.34184,4.11113 -10.68799,0 z"
     id="path3671"
     style="fill:#2e3436"
     inkscape:connector-curvature="0" /><path
     d="m 126.70065,40.932303 0,8.364514 c -0.005,6.899302 -5.48624,12.281231 -11.09578,15.477196 -7.97095,4.5616 -17.682127,6.377705 -26.791102,6.415639 C 79.714277,71.146976 69.998353,69.335613 62.041633,64.774013 56.379938,61.554339 50.988525,56.229311 50.926882,49.296817 l 0,-8.696439 c 0.0569,7.363997 6.197517,12.930856 12.267006,16.107854 8.075265,4.239158 17.961893,5.936718 27.018708,5.737563 8.876627,-0.189671 18.563624,-2.200189 26.207864,-6.870851 5.24916,-3.233899 10.08578,-8.193809 10.28019,-14.642641 z"
     id="path3673"
     style="fill:#1b0000;fill-opacity:1"
     inkscape:connector-curvature="0" /><path
     d="m 33.775835,44.934372 0,4.362445 c -0.279766,4.106388 -10.365549,4.101647 -10.664281,0 l 0,-4.362445 c 0.303474,4.106389 10.375032,4.11113 10.664281,0 z"
     id="path3675"
     style="fill:#2e3436"
     inkscape:connector-curvature="0" /><path
     d="m 33.775835,44.915405 0,0.01897 c -0.289249,4.11113 -10.360807,4.106389 -10.664281,0 0.331925,-4.073196 10.31813,-4.082679 10.664281,-0.01897 z"
     id="path3677"
     style="fill:#2e3436"
     inkscape:connector-curvature="0" /><path
     d="m 173.39778,51.487523 c 0.0142,0.938874 -0.78713,1.735495 -1.55056,2.166997 l -0.01,-0.01897 -79.254245,45.77248 c -2.029485,1.209157 -5.505215,1.194927 -7.544184,0 l -0.322442,-0.185404 0.322442,-0.559531 0,-0.725494 0.275023,-0.569014 c 2.209674,1.053151 5.106906,1.024226 7.254936,-0.123287 l -0.0047,-0.0095 79.273212,-45.748771 c 0.97728,-0.578498 1.49841,-1.303992 1.56005,-2.038969 l 0,2.039443 z"
     id="path3679"
     style="fill:#babdb6"
     inkscape:connector-curvature="0" /><path
     d="M 28.446065,86.775909 20.897139,82.41868 c -1.142771,1.071645 -2.171739,2.982585 -2.143289,4.585309 l 0,4.632727 L 2.034306,81.986704 C 1.2424274,81.488816 0.4789995,80.805998 0.47425771,79.795998 l 0,-28.303733 c 0,0.782395 0.51685489,1.56479 1.56004829,2.166997 l 83.004999,47.939478 c 2.238124,1.1807 5.291835,1.19967 7.529959,0.01 l -0.0047,-0.01 83.047678,-47.939478 c 0.97728,-0.58324 1.4984,-1.294508 1.56005,-2.020002 l 0,28.156738 c 0.01,0.991033 -0.78714,1.692818 -1.55057,2.185964 l -0.01,-0.01423 -18.97663,10.953531 0,0.0047 -2.38085,1.375119 -4.73183,2.73127 -56.939395,32.874813 c -2.029485,1.20916 -5.505215,1.19968 -7.544184,0 l -18.862833,-10.89188 0,-10.43668 -7.548926,-4.3577 c -1.213898,1.18544 -2.110096,2.81188 -2.143289,4.53789 0,0.009 0,0.0142 0,0.0237 l 0,4.6332 -28.037718,-16.179456 0,-0.01897 0,-10.441418 z"
     id="path3681"
     style="fill:#a06e6e"
     inkscape:connector-curvature="0" /><polygon
     points="334.26,215.38 338.719,206.42 343.74,203.52 337.69,215.57 "
     id="polygon3683"
     style="fill:#babdb6"
     transform="matrix(0.4741788,0,0,0.4741788,-6.3586588,-3.5788609)" /><polygon
     points="334.26,215.38 328.74,212.18 338.719,206.42 "
     id="polygon3685"
     style="fill:#babdb6"
     transform="matrix(0.4741788,0,0,0.4741788,-6.3586588,-3.5788609)" /><path
     d="m 94.167247,10.096456 0,4.362445 c -0.341409,4.077937 -10.346582,4.087421 -10.68799,0 l 0,-4.362445 c 0.341408,4.092163 10.346581,4.077937 10.68799,0 z"
     id="path3687"
     style="fill:#a06e6e"
     inkscape:connector-curvature="0" /><path
     d="m 94.167247,10.077489 0,0.01897 c -0.341409,4.077937 -10.346582,4.092163 -10.68799,0 0.303474,-4.1016469 10.356065,-4.0874216 10.68799,-0.01897 z"
     id="path3689"
     style="fill:#a06e6e"
     inkscape:connector-curvature="0" /><path
     d="m 94.167247,79.795998 c -0.341409,-4.077938 -10.346582,-4.087422 -10.68799,0 l 0,4.362444 c 0.350892,4.096905 10.337097,4.087422 10.68799,0 l 0,-4.362444 z M 83.479257,14.458901 c 0.341408,4.087421 10.346581,4.077937 10.68799,0 l 0,-4.362445 0,-0.01897 C 93.835322,6.0090344 83.782731,5.9948091 83.479257,10.096456 l 0,4.362445 z m 89.918523,34.989653 c -0.0616,0.734977 -0.58276,1.460471 -1.56005,2.038969 l -79.273208,45.748771 0.0047,0.0095 c -2.14803,1.147513 -5.045262,1.175964 -7.254935,0.123287 -0.09484,-0.03793 -0.18493,-0.08535 -0.275024,-0.132296 L 5.7850603,51.463814 l -0.00474,0.0047 C 4.7560923,50.856865 4.248721,50.079212 4.248721,49.301559 l 0,-0.0047 c 0,-0.782395 0.5215966,-1.560048 1.5600482,-2.166997 L 85.039305,1.3573404 l 0.0095,0.014225 c 2.038969,-1.19018882 5.509958,-1.20441418 7.534702,0.00474 L 171.83773,47.12982 c 1.10484,0.644883 1.62644,1.488921 1.56005,2.318734 z M 88.358557,18.707543 c -8.980947,0.09483 -18.654194,1.977325 -26.497112,6.505733 -5.552634,3.214932 -10.906112,8.554185 -10.934563,15.387102 l 0,8.696439 c 0.06164,6.932494 5.453056,12.257522 11.114751,15.477196 7.95672,4.5616 17.672644,6.372963 26.772135,6.415639 9.108975,-0.03793 18.820152,-1.854039 26.791102,-6.415639 5.60954,-3.195965 11.09104,-8.577894 11.09578,-15.477196 l 0,-8.364514 c 0.009,-0.289249 0.009,-0.58324 0,-0.877231 C 126.37774,33.17948 120.7829,27.958771 115.11172,24.8529 107.1166,20.419328 97.424855,18.688576 88.358557,18.707543 Z m 66.175923,30.589274 0,-4.362445 0,-0.01897 c -0.37461,-4.068454 -10.34611,-4.049487 -10.68799,0.01897 l 0,4.362445 c 0.2992,4.087421 10.38499,4.11113 10.68799,0 z m -120.758645,0 0,-4.362445 0,-0.01897 c -0.346151,-4.063712 -10.332356,-4.054229 -10.664281,0.01897 l 0,4.362445 c 0.298732,4.101647 10.384515,4.106388 10.664281,0 z"
     id="path3691"
     style="fill:#a06e6e"
     inkscape:connector-curvature="0" /><path
     d="m 64.028442,113.12128 c 0.03319,-1.72648 0.929391,-3.35244 2.14803,-4.54263 l 0,10.43668 -4.177515,14.84653 -0.0047,0 -2.73127,3.31926 4.760755,-16.92771 0.0047,0.005 0,-0.019 0,-7.09371 c 0,-0.01 0,-0.0147 0,-0.0242 z"
     id="path3693"
     style="fill:#babdb6"
     inkscape:connector-curvature="0" /><path
     d="m 66.176472,108.57865 c -1.218639,1.19019 -2.114837,2.81615 -2.14803,4.54263 0,0.009 0,0.0138 0,0.0237 l 0,7.09372 -0.0047,0.0142 -7.539442,-4.36244 0,-0.0142 0,-2.46051 0,-4.6332 c 0,-0.009 0,-0.0142 0,-0.0237 0.03319,-1.72649 0.92939,-3.35245 2.143288,-4.53789 l 7.548926,4.3577 z"
     id="path3695"
     style="fill:#babdb6"
     inkscape:connector-curvature="0" /><path
     d="m 59.11595,139.85074 5.467281,10.25649 -0.0047,0.009 -3.001552,-1.74497 -8.492542,-11.30917 0.53108,-0.39831 4.021036,2.32348 1.29925,-0.0479 c 0.0047,0.32291 0.06164,0.63587 0.189671,0.90568 l -0.0095,0.005 z"
     id="path3697"
     style="fill:#babdb6"
     inkscape:connector-curvature="0" /><path
     d="m 59.262945,137.18112 2.73127,-3.31926 0.0047,0 -0.0047,0.019 -0.739719,1.98254 0.01897,0.009 c -0.246573,0.73023 -0.535822,1.94887 -0.113802,2.66488 l 5.106905,9.60212 -1.683335,1.96784 -5.467281,-10.25648 0.0095,-0.005 c -0.128028,-0.26981 -0.184929,-0.58277 -0.189671,-0.90568 -0.02371,-0.60695 0.137512,-1.25657 0.327183,-1.7592 z"
     id="path3699"
     style="fill:#babdb6"
     inkscape:connector-curvature="0" /><path
     d="m 59.262945,137.18112 c -0.189671,0.5031 -0.350892,1.15272 -0.327183,1.7592 l -1.29925,0.0479 -4.021036,-2.32347 -0.53108,0.39831 -0.915166,-1.2139 c -0.621174,-0.94362 -0.668592,-1.94414 -0.455211,-3.02526 l 4.765497,-16.93767 0.0047,0.005 7.539442,4.36245 -4.760755,16.92771 z"
     id="path3701"
     style="fill:#babdb6"
     inkscape:connector-curvature="0" /><path
     d="m 28.446065,86.775909 0,10.441892 -4.182257,14.884469 -2.717044,3.25761 4.751271,-16.880764 0,-7.112682 c -0.02845,-1.584231 0.991034,-3.542589 2.14803,-4.590525 z"
     id="path3703"
     style="fill:#babdb6"
     inkscape:connector-curvature="0" /><path
     d="m 20.897139,82.418206 7.548926,4.357229 c -1.156996,1.047935 -2.176481,3.006294 -2.14803,4.590525 l 0,7.112682 -7.544185,-4.357703 0,-2.484697 0,-4.632727 c -0.02845,-1.602724 1.000518,-3.513665 2.143289,-4.585309 z"
     id="path3705"
     style="fill:#babdb6"
     inkscape:connector-curvature="0" /><path
     d="m 23.524089,114.08387 0.01897,0.01 c -0.284507,0.88672 -0.521596,1.76395 -0.137512,2.66489 l 5.106906,9.57841 -1.659626,1.99108 -5.467281,-10.25649 0.0095,-0.005 c -0.151737,-0.24705 -0.208638,-0.58324 -0.208638,-0.94836 0,-0.61169 0.165962,-1.29451 0.34615,-1.71653 l 0.01423,-0.0427 2.717044,-3.25761 -0.739719,1.98207 z"
     id="path3707"
     style="fill:#babdb6"
     inkscape:connector-curvature="0" /><path
     d="m 21.546764,115.35941 -0.01423,0.0427 c -0.180188,0.42202 -0.34615,1.10484 -0.34615,1.71653 l -1.256574,0.1138 -4.002069,-2.32821 -0.540564,0.40779 -0.948358,-1.26653 c -0.606948,-0.73024 -0.668592,-2.11958 -0.455211,-3.0063 l 4.770238,-16.918695 7.544185,4.357703 -4.751271,16.881242 z"
     id="path3709"
     style="fill:#babdb6"
     inkscape:connector-curvature="0" /><path
     d="m 21.385543,118.07171 5.467281,10.25649 -0.0047,0.01 -2.987327,-1.73076 -8.473575,-11.29541 0.540564,-0.40779 4.002069,2.32821 1.256574,-0.1138 c 0,0.36512 0.0569,0.70131 0.208638,0.94836 l -0.0095,0.005 z"
     id="path3711"
     style="fill:#babdb6"
     inkscape:connector-curvature="0" /><path
     d="m 4.248721,49.296817 0,0.0047 0,2.185964 c -0.014225,0.943616 0.7918786,1.740236 1.5600482,2.171739 l 78.9080938,45.563841 0.322442,0.185404 c 2.038969,1.194933 5.514699,1.209153 7.544185,0 l 79.25424,-45.77248 0.01,0.01897 c 0.76296,-0.431502 1.56479,-1.228123 1.55057,-2.166997 l 0,-2.038969 c 0.0669,-0.829812 -0.45521,-1.673851 -1.56005,-2.318734 l 0.005,-0.0095 3.76972,2.17648 c 1.10484,0.678076 1.62691,1.517372 1.56005,2.342444 -0.0616,0.725493 -0.58277,1.436761 -1.56005,2.020001 l -83.047673,47.939474 0.0047,0.01 c -2.238124,1.19019 -5.291835,1.17122 -7.529959,-0.01 L 2.034306,53.659262 C 0.9911126,53.057055 0.47425771,52.27466 0.47425771,51.492265 l 0,-0.0047 c 0,-0.782395 0.51685489,-1.56479 1.54108109,-2.181222 l -0.00474,-0.0095 3.7981722,-2.166997 C 4.7703176,47.736769 4.248721,48.514422 4.248721,49.296817 Z"
     id="path3713"
     style="fill:#a06e6e"
     inkscape:connector-curvature="0" /><path
     d="m 5.7850603,51.463814 79.2542447,45.77248 c 0.09009,0.04742 0.180188,0.09436 0.275024,0.132296 l -0.275024,0.569014 0,0.725494 -0.322442,0.559531 L 5.8087692,53.659262 C 5.0405996,53.227759 4.2344956,52.431139 4.248721,51.487523 l 0,-2.185964 c 0,0.777653 0.5073713,1.555306 1.5315975,2.166997 l 0.00474,-0.0047 z"
     id="path3715"
     style="fill:#a06e6e"
     inkscape:connector-curvature="0" /><path
     d="m 5.7850603,51.463814 79.2542447,45.77248 c 0.09009,0.04742 0.180188,0.09436 0.275024,0.132296 l -0.275024,0.569014 0,0.725494 -0.322442,0.559531 L 5.8087692,53.659262 C 5.0405996,53.227759 4.2344956,52.431139 4.248721,51.487523 l 0,-2.185964 c 0,0.777653 0.5073713,1.555306 1.5315975,2.166997 l 0.00474,-0.0047 z"
     id="path3717"
     style="fill:#babdb6"
     inkscape:connector-curvature="0" /><path
     d="M 28.446065,86.775909 20.897139,82.41868 c -1.142771,1.071645 -2.171739,2.982585 -2.143289,4.585309 l 0,4.632727 L 2.034306,81.986704 C 1.2424274,81.488816 0.4789995,80.805998 0.47425771,79.795998 l 0,-28.303733 c 0,0.782395 0.51685489,1.56479 1.56004829,2.166997 l 83.004999,47.939478 c 2.238124,1.1807 5.291835,1.19967 7.529959,0.01 l -0.0047,-0.01 83.047678,-47.939478 c 0.97728,-0.58324 1.4984,-1.294508 1.56005,-2.020002 l 0,28.156738 c 0.01,0.991033 -0.78714,1.692818 -1.55057,2.185964 l -0.01,-0.01423 -18.97663,10.953531 0,0.0047 -2.38085,1.375119 -4.73183,2.73127 -56.939395,32.874813 c -2.029485,1.20916 -5.505215,1.19968 -7.544184,0 l -18.862833,-10.89188 0,-10.43668 -7.548926,-4.3577 c -1.213898,1.18544 -2.110096,2.81188 -2.143289,4.53789 0,0.009 0,0.0142 0,0.0237 l 0,4.6332 -28.037718,-16.179456 0,-0.01897 0,-10.441418 z"
     id="path3719"
     style="fill:#2e3436"
     inkscape:connector-curvature="0" /><polygon
     points="334.26,215.38 338.719,206.42 343.74,203.52 337.69,215.57 "
     id="polygon3721"
     style="fill:#babdb6"
     transform="matrix(0.4741788,0,0,0.4741788,-6.3586588,-3.5788609)" /><polygon
     points="334.26,215.38 328.74,212.18 338.719,206.42 "
     id="polygon3723"
     style="fill:#babdb6"
     transform="matrix(0.4741788,0,0,0.4741788,-6.3586588,-3.5788609)" /><path
     d="m 94.167247,10.096456 0,4.362445 c -0.341409,4.077937 -10.346582,4.087421 -10.68799,0 l 0,-4.362445 c 0.341408,4.092163 10.346581,4.077937 10.68799,0 z"
     id="path3725"
     style="fill:#2e3436"
     inkscape:connector-curvature="0" /><path
     d="m 94.167247,10.077489 0,0.01897 c -0.341409,4.077937 -10.346582,4.092163 -10.68799,0 0.303474,-4.1016469 10.356065,-4.0874216 10.68799,-0.01897 z"
     id="path3727"
     style="fill:#2e3436"
     inkscape:connector-curvature="0" /><path
     d="m 94.167247,79.795998 c -0.341409,-4.077938 -10.346582,-4.087422 -10.68799,0 l 0,4.362444 c 0.350892,4.096905 10.337097,4.087422 10.68799,0 l 0,-4.362444 z M 83.479257,14.458901 c 0.341408,4.087421 10.346581,4.077937 10.68799,0 l 0,-4.362445 0,-0.01897 C 93.835322,6.0090344 83.782731,5.9948091 83.479257,10.096456 l 0,4.362445 z m 89.918523,34.989653 c -0.0616,0.734977 -0.58276,1.460471 -1.56005,2.038969 l -79.273208,45.748771 0.0047,0.0095 c -2.14803,1.147513 -5.045262,1.175964 -7.254935,0.123287 -0.09484,-0.03793 -0.18493,-0.08535 -0.275024,-0.132296 L 5.7850603,51.463814 l -0.00474,0.0047 C 4.7560923,50.856865 4.248721,50.079212 4.248721,49.301559 l 0,-0.0047 c 0,-0.782395 0.5215966,-1.560048 1.5600482,-2.166997 L 85.039305,1.3573404 l 0.0095,0.014225 c 2.038969,-1.19018882 5.509958,-1.20441418 7.534702,0.00474 L 171.83773,47.12982 c 1.10484,0.644883 1.62644,1.488921 1.56005,2.318734 z M 88.358557,18.707543 c -8.980947,0.09483 -18.654194,1.977325 -26.497112,6.505733 -5.552634,3.214932 -10.906112,8.554185 -10.934563,15.387102 l 0,8.696439 c 0.06164,6.932494 5.453056,12.257522 11.114751,15.477196 7.95672,4.5616 17.672644,6.372963 26.772135,6.415639 9.108975,-0.03793 18.820152,-1.854039 26.791102,-6.415639 5.60954,-3.195965 11.09104,-8.577894 11.09578,-15.477196 l 0,-8.364514 c 0.009,-0.289249 0.009,-0.58324 0,-0.877231 C 126.37774,33.17948 120.7829,27.958771 115.11172,24.8529 107.1166,20.419328 97.424855,18.688576 88.358557,18.707543 Z m 66.175923,30.589274 0,-4.362445 0,-0.01897 c -0.37461,-4.068454 -10.34611,-4.049487 -10.68799,0.01897 l 0,4.362445 c 0.2992,4.087421 10.38499,4.11113 10.68799,0 z m -120.758645,0 0,-4.362445 0,-0.01897 c -0.346151,-4.063712 -10.332356,-4.054229 -10.664281,0.01897 l 0,4.362445 c 0.298732,4.101647 10.384515,4.106388 10.664281,0 z"
     id="path3729"
     style="fill:#babdb6"
     inkscape:connector-curvature="0" /><path
     d="m 64.028442,113.12128 c 0.03319,-1.72648 0.929391,-3.35244 2.14803,-4.54263 l 0,10.43668 -4.177515,14.84653 -0.0047,0 -2.73127,3.31926 4.760755,-16.92771 0.0047,0.005 0,-0.019 0,-7.09371 c 0,-0.01 0,-0.0147 0,-0.0242 z"
     id="path3731"
     style="fill:#babdb6"
     inkscape:connector-curvature="0" /><path
     d="m 66.176472,108.57865 c -1.218639,1.19019 -2.114837,2.81615 -2.14803,4.54263 0,0.009 0,0.0138 0,0.0237 l 0,7.09372 -0.0047,0.0142 -7.539442,-4.36244 0,-0.0142 0,-2.46051 0,-4.6332 c 0,-0.009 0,-0.0142 0,-0.0237 0.03319,-1.72649 0.92939,-3.35245 2.143288,-4.53789 l 7.548926,4.3577 z"
     id="path3733"
     style="fill:#babdb6"
     inkscape:connector-curvature="0" /><path
     d="m 59.11595,139.85074 5.467281,10.25649 -0.0047,0.009 -3.001552,-1.74497 -8.492542,-11.30917 0.53108,-0.39831 4.021036,2.32348 1.29925,-0.0479 c 0.0047,0.32291 0.06164,0.63587 0.189671,0.90568 l -0.0095,0.005 z"
     id="path3735"
     style="fill:#babdb6"
     inkscape:connector-curvature="0" /><path
     d="m 59.262945,137.18112 2.73127,-3.31926 0.0047,0 -0.0047,0.019 -0.739719,1.98254 0.01897,0.009 c -0.246573,0.73023 -0.535822,1.94887 -0.113802,2.66488 l 5.106905,9.60212 -1.683335,1.96784 -5.467281,-10.25648 0.0095,-0.005 c -0.128028,-0.26981 -0.184929,-0.58277 -0.189671,-0.90568 -0.02371,-0.60695 0.137512,-1.25657 0.327183,-1.7592 z"
     id="path3737"
     style="fill:#babdb6"
     inkscape:connector-curvature="0" /><path
     d="m 28.446065,86.775909 0,10.441892 -4.182257,14.884469 -2.717044,3.25761 4.751271,-16.880764 0,-7.112682 c -0.02845,-1.584231 0.991034,-3.542589 2.14803,-4.590525 z"
     id="path3739"
     style="fill:#babdb6"
     inkscape:connector-curvature="0" /><path
     d="m 59.262945,137.18112 c -0.189671,0.5031 -0.350892,1.15272 -0.327183,1.7592 l -1.29925,0.0479 -4.021036,-2.32347 -0.53108,0.39831 -0.915166,-1.2139 c -0.621174,-0.94362 -0.668592,-1.94414 -0.455211,-3.02526 l 4.765497,-16.93767 0.0047,0.005 7.539442,4.36245 -4.760755,16.92771 z"
     id="path3741"
     style="fill:#babdb6"
     inkscape:connector-curvature="0" /><path
     d="m 20.897139,82.418206 7.548926,4.357229 c -1.156996,1.047935 -2.176481,3.006294 -2.14803,4.590525 l 0,7.112682 -7.544185,-4.357703 0,-2.484697 0,-4.632727 c -0.02845,-1.602724 1.000518,-3.513665 2.143289,-4.585309 z"
     id="path3743"
     style="fill:#babdb6"
     inkscape:connector-curvature="0" /><path
     d="m 23.524089,114.08387 0.01897,0.01 c -0.284507,0.88672 -0.521596,1.76395 -0.137512,2.66489 l 5.106906,9.57841 -1.659626,1.99108 -5.467281,-10.25649 0.0095,-0.005 c -0.151737,-0.24705 -0.208638,-0.58324 -0.208638,-0.94836 0,-0.61169 0.165962,-1.29451 0.34615,-1.71653 l 0.01423,-0.0427 2.717044,-3.25761 -0.739719,1.98207 z"
     id="path3745"
     style="fill:#babdb6"
     inkscape:connector-curvature="0" /><path
     d="m 21.546764,115.35941 -0.01423,0.0427 c -0.180188,0.42202 -0.34615,1.10484 -0.34615,1.71653 l -1.256574,0.1138 -4.002069,-2.32821 -0.540564,0.40779 -0.948358,-1.26653 c -0.606948,-0.73024 -0.668592,-2.11958 -0.455211,-3.0063 l 4.770238,-16.918695 7.544185,4.357703 -4.751271,16.881242 z"
     id="path3747"
     style="fill:#babdb6"
     inkscape:connector-curvature="0" /><path
     d="m 21.385543,118.07171 5.467281,10.25649 -0.0047,0.01 -2.987327,-1.73076 -8.473575,-11.29541 0.540564,-0.40779 4.002069,2.32821 1.256574,-0.1138 c 0,0.36512 0.0569,0.70131 0.208638,0.94836 l -0.0095,0.005 z"
     id="path3749"
     style="fill:#babdb6"
     inkscape:connector-curvature="0" /><path
     d="m 4.248721,49.296817 0,0.0047 0,2.185964 c -0.014225,0.943616 0.7918786,1.740236 1.5600482,2.171739 l 78.9080938,45.563841 0.322442,0.185404 c 2.038969,1.194933 5.514699,1.209153 7.544185,0 l 79.25424,-45.77248 0.01,0.01897 c 0.76296,-0.431502 1.56479,-1.228123 1.55057,-2.166997 l 0,-2.038969 c 0.0669,-0.829812 -0.45521,-1.673851 -1.56005,-2.318734 l 0.005,-0.0095 3.76972,2.17648 c 1.10484,0.678076 1.62691,1.517372 1.56005,2.342444 -0.0616,0.725493 -0.58277,1.436761 -1.56005,2.020001 l -83.047673,47.939474 0.0047,0.01 c -2.238124,1.19019 -5.291835,1.17122 -7.529959,-0.01 L 2.034306,53.659262 C 0.9911126,53.057055 0.47425771,52.27466 0.47425771,51.492265 l 0,-0.0047 c 0,-0.782395 0.51685489,-1.56479 1.54108109,-2.181222 l -0.00474,-0.0095 3.7981722,-2.166997 C 4.7703176,47.736769 4.248721,48.514422 4.248721,49.296817 Z"
     id="path3751"
     style="fill:#2e3436"
     inkscape:connector-curvature="0" /><path
     d="m 126.70065,40.055072 c 0.009,0.293991 0.009,0.587982 0,0.877231 -0.19441,6.448832 -5.03103,11.408742 -10.28067,14.642641 -7.64376,4.670662 -17.331231,6.68118 -26.207859,6.870851 C 81.155306,62.64495 71.268678,60.94739 63.193413,56.708232 57.123925,53.531234 50.983309,47.964375 50.926408,40.600378 c 0.02845,-6.832917 5.381929,-12.17217 10.934563,-15.387102 7.842917,-4.528408 17.516165,-6.410898 26.497111,-6.505733 9.066299,-0.01897 18.758518,1.711785 26.753168,6.145357 5.67165,3.105871 11.26649,8.32658 11.5894,15.202172 z"
     id="path3753"
     style="fill:#180000;fill-opacity:1"
     inkscape:connector-curvature="0" /><g
     id="g3755"
     transform="matrix(0.4741788,0,0,0.4741788,-6.3586588,-3.5788609)"><line
       style="fill:none;stroke:#000000;stroke-width:2;stroke-linecap:round;stroke-linejoin:round;stroke-miterlimit:10"
       id="line3757"
       y2="212.57001"
       x2="73.400002"
       y1="243.96001"
       x1="64.580002"
       stroke-miterlimit="10" /><line
       style="fill:none;stroke:#000000;stroke-width:2;stroke-linecap:round;stroke-linejoin:round;stroke-miterlimit:10"
       id="line3759"
       y2="111.51"
       x2="120.81"
       y1="93.169998"
       x1="120.81"
       stroke-miterlimit="10" /><line
       style="fill:none;stroke:#000000;stroke-width:2;stroke-linecap:round;stroke-linejoin:round;stroke-miterlimit:10"
       id="line3761"
       y2="111.51"
       x2="62.150002"
       y1="102.31"
       x1="62.150002"
       stroke-miterlimit="10" /><line
       style="fill:none;stroke:#000000;stroke-width:2;stroke-linecap:round;stroke-linejoin:round;stroke-miterlimit:10"
       id="line3763"
       y2="38.040001"
       x2="189.46001"
       y1="28.84"
       x1="189.46001"
       stroke-miterlimit="10" /><line
       style="fill:none;stroke:#000000;stroke-width:2;stroke-linecap:round;stroke-linejoin:round;stroke-miterlimit:10"
       id="line3765"
       y2="111.51"
       x2="316.76901"
       y1="102.31"
       x1="316.76901"
       stroke-miterlimit="10" /><line
       style="fill:none;stroke:#000000;stroke-width:2;stroke-linecap:round;stroke-linejoin:round;stroke-miterlimit:10"
       id="line3767"
       y2="185.03"
       x2="189.46001"
       y1="175.83"
       x1="189.46001"
       stroke-miterlimit="10" /><line
       style="fill:none;stroke:#000000;stroke-width:2;stroke-linecap:round;stroke-linejoin:round;stroke-miterlimit:10"
       id="line3769"
       y2="215.57001"
       x2="337.69"
       y1="203.52"
       x1="343.73999"
       stroke-miterlimit="10" /><polyline
       style="fill:none;stroke:#000000;stroke-width:2;stroke-linecap:round;stroke-linejoin:round;stroke-miterlimit:10"
       id="polyline3771"
       points="    43.86,248.06 45.86,250.73 63.73,274.55   "
       stroke-miterlimit="10" /><polyline
       style="fill:none;stroke:#000000;stroke-width:2;stroke-linecap:round;stroke-linejoin:round;stroke-miterlimit:10"
       id="polyline3773"
       points="    152.97,258.54 144.16,289.85 144.15,289.89   "
       stroke-miterlimit="10" /><polyline
       style="fill:none;stroke:#000000;stroke-width:2;stroke-linecap:round;stroke-linejoin:round;stroke-miterlimit:10"
       id="polyline3775"
       points="    334.26,215.38 337.69,215.57 337.74,215.57   "
       stroke-miterlimit="10" /><polyline
       style="fill:none;stroke:#000000;stroke-width:2;stroke-linecap:round;stroke-linejoin:round;stroke-miterlimit:10"
       id="polyline3777"
       points="    334.26,215.38 338.719,206.42 338.74,206.37   "
       stroke-miterlimit="10" /><polyline
       style="fill:none;stroke:#000000;stroke-width:2;stroke-linecap:round;stroke-linejoin:round;stroke-miterlimit:10"
       id="polyline3779"
       points="    138.39,296.85 148.43,261.15 148.44,261.12   "
       stroke-miterlimit="10" /><polyline
       style="fill:none;stroke:#000000;stroke-width:2;stroke-linecap:round;stroke-linejoin:round;stroke-miterlimit:10"
       id="polyline3781"
       points="    148.44,261.16 148.44,261.12 148.44,246.16   "
       stroke-miterlimit="10" /><path
       inkscape:connector-curvature="0"
       style="fill:none;stroke:#000000;stroke-width:2;stroke-linecap:round;stroke-linejoin:round;stroke-miterlimit:10"
       id="path3783"
       d="m 148.44,246.16 c 0,-0.021 0,-0.03 0,-0.05 0.07,-3.641 1.96,-7.07 4.53,-9.58"
       stroke-miterlimit="10" /><line
       style="fill:none;stroke:#000000;stroke-width:2;stroke-linecap:round;stroke-linejoin:round;stroke-miterlimit:10"
       id="line3785"
       y2="258.54001"
       x2="152.97"
       y1="236.53"
       x1="152.97"
       stroke-miterlimit="10" /><path
       inkscape:connector-curvature="0"
       style="fill:none;stroke:#000000;stroke-width:2;stroke-linecap:round;stroke-linejoin:round;stroke-miterlimit:10"
       id="path3787"
       d="m 42.9,241.72 c -0.45,1.87 -0.32,4.8 0.96,6.34"
       stroke-miterlimit="10" /><polyline
       style="fill:none;stroke:#000000;stroke-width:2;stroke-linecap:round;stroke-linejoin:round;stroke-miterlimit:10"
       id="polyline3789"
       points="    122.47,287.66 132.52,251.94 132.53,251.92   "
       stroke-miterlimit="10" /><polyline
       style="fill:none;stroke:#000000;stroke-width:2;stroke-linecap:round;stroke-linejoin:round;stroke-miterlimit:10"
       id="polyline3791"
       points="    132.53,251.97 132.53,251.95 132.53,251.92 132.53,246.73 132.53,236.96   "
       stroke-miterlimit="10" /><path
       inkscape:connector-curvature="0"
       style="fill:none;stroke:#000000;stroke-width:2;stroke-linecap:round;stroke-linejoin:round;stroke-miterlimit:10"
       id="path3793"
       d="m 132.53,236.96 c 0,-0.02 0,-0.03 0,-0.05 0.07,-3.641 1.96,-7.07 4.52,-9.57"
       stroke-miterlimit="10" /><line
       style="fill:none;stroke:#000000;stroke-linecap:round;stroke-linejoin:round;stroke-miterlimit:10"
       id="line3795"
       y2="289.42001"
       x2="125.52"
       y1="295.04001"
       x1="135.24001"
       stroke-miterlimit="10" /><polyline
       style="fill:none;stroke:#000000;stroke-linecap:round;stroke-linejoin:round;stroke-miterlimit:10"
       id="polyline3797"
       points="    148.44,261.16 148.43,261.15 132.53,251.95 132.52,251.94 132.48,251.92   "
       stroke-miterlimit="10" /><line
       style="fill:none;stroke:#000000;stroke-linecap:round;stroke-linejoin:round;stroke-miterlimit:10"
       id="line3799"
       y2="238.72"
       x2="135.58"
       y1="244.35001"
       x1="145.28999"
       stroke-miterlimit="10" /><polyline
       style="fill:none;stroke:#000000;stroke-width:2;stroke-linecap:round;stroke-linejoin:round;stroke-miterlimit:10"
       id="polyline3801"
       points="    334.26,215.38 328.74,212.18 328.679,212.14   "
       stroke-miterlimit="10" /><polyline
       style="fill:none;stroke:#000000;stroke-width:2;stroke-linecap:round;stroke-linejoin:round;stroke-miterlimit:10"
       id="polyline3803"
       points="    63.73,274.55 70.03,278.2 70.06,278.22   "
       stroke-miterlimit="10" /><line
       style="fill:none;stroke:#000000;stroke-linecap:round;stroke-linejoin:round;stroke-miterlimit:10"
       id="line3805"
       y2="254.78"
       x2="55.439999"
       y1="249.87"
       x1="47"
       stroke-miterlimit="10" /><line
       style="fill:none;stroke:#000000;stroke-width:2;stroke-linecap:round;stroke-linejoin:round;stroke-miterlimit:10"
       id="line3807"
       y2="281.51001"
       x2="192.75"
       y1="258.54001"
       x1="152.97"
       stroke-miterlimit="10" /><line
       style="fill:none;stroke:#000000;stroke-width:2;stroke-linecap:round;stroke-linejoin:round;stroke-miterlimit:10"
       id="line3809"
       y2="236.53"
       x2="152.97"
       y1="227.34"
       x1="137.05"
       stroke-miterlimit="10" /><line
       style="fill:none;stroke:#000000;stroke-width:2;stroke-linecap:round;stroke-linejoin:round;stroke-miterlimit:10"
       id="line3811"
       y2="221.81"
       x2="192.75"
       y1="120.71"
       x1="17.700001"
       stroke-miterlimit="10" /><line
       style="fill:none;stroke:#000000;stroke-linecap:round;stroke-linejoin:round;stroke-miterlimit:10"
       id="line3813"
       y2="176.88"
       x2="17.700001"
       y1="124.33"
       x1="17.700001"
       stroke-miterlimit="10" /><line
       style="fill:none;stroke:#000000;stroke-width:2;stroke-linecap:round;stroke-linejoin:round;stroke-miterlimit:10"
       id="line3815"
       y2="200.8"
       x2="52.959999"
       y1="180.45"
       x1="17.700001"
       stroke-miterlimit="10" /><path
       inkscape:connector-curvature="0"
       style="fill:none;stroke:#000000;stroke-width:2;stroke-linecap:round;stroke-linejoin:round;stroke-miterlimit:10"
       id="path3817"
       d="m 17.7,180.45 c -1.67,-1.05 -3.28,-2.49 -3.29,-4.62"
       stroke-miterlimit="10" /><path
       inkscape:connector-curvature="0"
       style="fill:none;stroke:#000000;stroke-width:2;stroke-linecap:round;stroke-linejoin:round;stroke-miterlimit:10"
       id="path3819"
       d="m 14.41,116.14 c 0,1.65 1.09,3.3 3.29,4.57"
       stroke-miterlimit="10" /><path
       inkscape:connector-curvature="0"
       style="fill:none;stroke:#000000;stroke-width:2;stroke-linecap:round;stroke-linejoin:round;stroke-miterlimit:10"
       id="path3821"
       d="m 17.7,111.51 c -0.01,0.01 -0.03,0.02 -0.04,0.02 -2.16,1.3 -3.25,2.95 -3.25,4.6"
       stroke-miterlimit="10" /><path
       inkscape:connector-curvature="0"
       style="fill:none;stroke:#000000;stroke-width:2;stroke-linecap:round;stroke-linejoin:round;stroke-miterlimit:10"
       id="path3823"
       d="m 122.47,287.66 c -0.45,2.28 -0.35,4.39 0.96,6.38"
       stroke-miterlimit="10" /><polyline
       style="fill:none;stroke:#000000;stroke-width:2;stroke-linecap:round;stroke-linejoin:round;stroke-miterlimit:10"
       id="polyline3825"
       points="    123.43,294.04 125.36,296.6 143.27,320.45 143.29,320.48   "
       stroke-miterlimit="10" /><line
       style="fill:none;stroke:#000000;stroke-linecap:round;stroke-linejoin:round;stroke-miterlimit:10"
       id="line3827"
       y2="119.18"
       x2="25.66"
       y1="117.7"
       x1="25.66"
       stroke-miterlimit="10" /><polyline
       style="fill:none;stroke:#000000;stroke-width:2;stroke-linecap:round;stroke-linejoin:round;stroke-miterlimit:10"
       id="polyline3829"
       points="    25.66,120.71 192.07,216.8 192.75,217.19   "
       stroke-miterlimit="10" /><line
       style="fill:none;stroke:#000000;stroke-width:2;stroke-linecap:round;stroke-linejoin:round;stroke-miterlimit:10"
       id="line3831"
       y2="10.41"
       x2="192.75"
       y1="106.94"
       x1="25.66"
       stroke-miterlimit="10" /><path
       inkscape:connector-curvature="0"
       style="fill:none;stroke:#000000;stroke-width:2;stroke-linecap:round;stroke-linejoin:round;stroke-miterlimit:10"
       id="path3833"
       d="m 22.37,111.52 c 0,1.64 1.07,3.28 3.23,4.57 0.02,0.02 0.04,0.03 0.06,0.04"
       stroke-miterlimit="10" /><path
       inkscape:connector-curvature="0"
       style="fill:none;stroke:#000000;stroke-width:2;stroke-linecap:round;stroke-linejoin:round;stroke-miterlimit:10"
       id="path3835"
       d="m 25.66,106.94 c -2.19,1.28 -3.29,2.92 -3.29,4.57"
       stroke-miterlimit="10" /><path
       inkscape:connector-curvature="0"
       style="fill:none;stroke:#000000;stroke-width:2;stroke-linecap:round;stroke-linejoin:round;stroke-miterlimit:10"
       id="path3837"
       d="m 25.66,120.71 c -1.62,-0.91 -3.32,-2.59 -3.29,-4.58"
       stroke-miterlimit="10" /><line
       style="fill:none;stroke:#000000;stroke-linecap:round;stroke-linejoin:round;stroke-miterlimit:10"
       id="line3839"
       y2="214.09"
       x2="192.75"
       y1="215.62"
       x1="192.75"
       stroke-miterlimit="10" /><line
       style="fill:none;stroke:#000000;stroke-width:2;stroke-linecap:round;stroke-linejoin:round;stroke-miterlimit:10"
       id="line3841"
       y2="116.08"
       x2="25.610001"
       y1="212.61"
       x1="192.75"
       stroke-miterlimit="10" /><path
       inkscape:connector-curvature="0"
       style="fill:none;stroke:#000000;stroke-width:2;stroke-linecap:round;stroke-linejoin:round;stroke-miterlimit:10"
       id="path3843"
       d="m 192.75,212.61 c 0.19,0.1 0.38,0.199 0.58,0.279 4.66,2.221 10.77,2.16 15.3,-0.26 0.01,-0.01 0.021,-0.01 0.03,-0.02"
       stroke-miterlimit="10" /><line
       style="fill:none;stroke:#000000;stroke-linecap:round;stroke-linejoin:round;stroke-miterlimit:10"
       id="line3845"
       y2="215.66"
       x2="208.66"
       y1="214.19"
       x1="208.66"
       stroke-miterlimit="10" /><line
       style="fill:none;stroke:#000000;stroke-width:2;stroke-linecap:round;stroke-linejoin:round;stroke-miterlimit:10"
       id="line3847"
       y2="120.66"
       x2="375.79999"
       y1="217.19"
       x1="208.66"
       stroke-miterlimit="10" /><path
       inkscape:connector-curvature="0"
       style="fill:none;stroke:#000000;stroke-width:2;stroke-linecap:round;stroke-linejoin:round;stroke-miterlimit:10"
       id="path3849"
       d="m 208.66,217.19 c -4.28,2.55 -11.61,2.52 -15.91,0"
       stroke-miterlimit="10" /><line
       style="fill:none;stroke:#000000;stroke-linecap:round;stroke-linejoin:round;stroke-miterlimit:10"
       id="line3851"
       y2="117.61"
       x2="375.79999"
       y1="119.13"
       x1="375.79999"
       stroke-miterlimit="10" /><line
       style="fill:none;stroke:#000000;stroke-width:2;stroke-linecap:round;stroke-linejoin:round;stroke-miterlimit:10"
       id="line3853"
       y2="212.61"
       x2="208.62"
       y1="116.13"
       x1="375.79999"
       stroke-miterlimit="10" /><path
       inkscape:connector-curvature="0"
       style="fill:none;stroke:#000000;stroke-width:2;stroke-linecap:round;stroke-linejoin:round;stroke-miterlimit:10"
       id="path3855"
       d="m 375.8,116.13 c 2.061,-1.22 3.16,-2.75 3.29,-4.3 0.141,-1.75 -0.96,-3.53 -3.29,-4.89"
       stroke-miterlimit="10" /><path
       inkscape:connector-curvature="0"
       style="fill:none;stroke:#000000;stroke-width:2;stroke-linecap:round;stroke-linejoin:round;stroke-miterlimit:10"
       id="path3857"
       d="m 379.09,116.13 c 0.03,1.98 -1.66,3.66 -3.27,4.57 -0.011,0 -0.011,0.01 -0.021,0.01"
       stroke-miterlimit="10" /><line
       style="fill:none;stroke:#000000;stroke-width:2;stroke-linecap:round;stroke-linejoin:round;stroke-miterlimit:10"
       id="line3859"
       y2="106.94"
       x2="375.79999"
       y1="10.45"
       x1="208.66"
       stroke-miterlimit="10" /><path
       inkscape:connector-curvature="0"
       style="fill:none;stroke:#000000;stroke-width:2;stroke-linecap:round;stroke-linejoin:round;stroke-miterlimit:10"
       id="path3861"
       d="m 208.66,10.45 c -4.271,-2.55 -11.59,-2.52 -15.89,-0.01 -0.01,0 -0.01,0.01 -0.02,0.01"
       stroke-miterlimit="10" /><polyline
       style="fill:none;stroke:#000000;stroke-width:2;stroke-linecap:round;stroke-linejoin:round;stroke-miterlimit:10"
       id="polyline3863"
       points="    208.66,281.51 328.74,212.18 338.719,206.42 343.74,203.52 343.74,203.51 383.76,180.41   "
       stroke-miterlimit="10" /><polyline
       style="fill:none;stroke:#000000;stroke-width:2;stroke-linecap:round;stroke-linejoin:round;stroke-miterlimit:10"
       id="polyline3865"
       points="    14.41,116.13 14.41,116.14 14.41,175.83   "
       stroke-miterlimit="10" /><line
       style="fill:none;stroke:#000000;stroke-linecap:round;stroke-linejoin:round;stroke-miterlimit:10"
       id="line3867"
       y2="277.94"
       x2="208.66"
       y1="225.42999"
       x1="208.66"
       stroke-miterlimit="10" /><path
       inkscape:connector-curvature="0"
       style="fill:none;stroke:#000000;stroke-width:2;stroke-linecap:round;stroke-linejoin:round;stroke-miterlimit:10"
       id="path3869"
       d="m 208.66,281.51 c -4.28,2.55 -11.61,2.53 -15.91,0"
       stroke-miterlimit="10" /><line
       style="fill:none;stroke:#000000;stroke-linecap:round;stroke-linejoin:round;stroke-miterlimit:10"
       id="line3871"
       y2="225.33"
       x2="192.75"
       y1="277.89001"
       x1="192.75"
       stroke-miterlimit="10" /><path
       inkscape:connector-curvature="0"
       style="fill:none;stroke:#000000;stroke-width:2;stroke-linecap:round;stroke-linejoin:round;stroke-miterlimit:10"
       id="path3873"
       d="m 192.75,221.81 c 4.72,2.49 11.16,2.53 15.88,0.021 0.01,-0.01 0.021,-0.01 0.03,-0.021"
       stroke-miterlimit="10" /><polyline
       style="fill:none;stroke:#000000;stroke-width:2;stroke-linecap:round;stroke-linejoin:round;stroke-miterlimit:10"
       id="polyline3875"
       points="    22.37,111.51 22.37,111.52 22.37,116.13   "
       stroke-miterlimit="10" /><polyline
       style="fill:none;stroke:#000000;stroke-width:2;stroke-linecap:round;stroke-linejoin:round;stroke-miterlimit:10"
       id="polyline3877"
       points="    383.76,111.51 375.809,106.92 375.76,106.89   "
       stroke-miterlimit="10" /><path
       inkscape:connector-curvature="0"
       style="fill:none;stroke:#000000;stroke-width:2;stroke-linecap:round;stroke-linejoin:round;stroke-miterlimit:10"
       id="path3879"
       d="m 387.05,175.83 c 0.021,2.09 -1.66,3.57 -3.27,4.61 -0.011,0 -0.011,0.01 -0.021,0.01"
       stroke-miterlimit="10" /><line
       style="fill:none;stroke:#000000;stroke-linecap:round;stroke-linejoin:round;stroke-miterlimit:10"
       id="line3881"
       y2="124.23"
       x2="383.76001"
       y1="176.83"
       x1="383.76001"
       stroke-miterlimit="10" /><line
       style="fill:none;stroke:#000000;stroke-width:2;stroke-linecap:round;stroke-linejoin:round;stroke-miterlimit:10"
       id="line3883"
       y2="221.81"
       x2="208.62"
       y1="120.71"
       x1="383.76001"
       stroke-miterlimit="10" /><path
       inkscape:connector-curvature="0"
       style="fill:none;stroke:#000000;stroke-width:2;stroke-linecap:round;stroke-linejoin:round;stroke-miterlimit:10"
       id="path3885"
       d="m 383.76,120.71 c 2.061,-1.23 3.16,-2.73 3.29,-4.26 0.141,-1.74 -0.96,-3.51 -3.29,-4.94"
       stroke-miterlimit="10" /><line
       style="fill:none;stroke:#000000;stroke-width:2;stroke-linecap:round;stroke-linejoin:round;stroke-miterlimit:10"
       id="line3887"
       y2="111.51"
       x2="17.65"
       y1="106.94"
       x1="25.66"
       stroke-miterlimit="10" /><polyline
       style="fill:none;stroke:#000000;stroke-width:2;stroke-linecap:round;stroke-linejoin:round;stroke-miterlimit:10"
       id="polyline3889"
       points="    379.09,116.13 379.09,111.83 379.09,111.46   "
       stroke-miterlimit="10" /><polyline
       style="fill:none;stroke:#000000;stroke-width:2;stroke-linecap:round;stroke-linejoin:round;stroke-miterlimit:10"
       id="polyline3891"
       points="    149.63,324.15 149.61,324.11 138.08,302.48 138.05,302.43   "
       stroke-miterlimit="10" /><line
       style="fill:none;stroke:#000000;stroke-width:2;stroke-linecap:round;stroke-linejoin:round;stroke-miterlimit:10"
       id="line3893"
       y2="289.85001"
       x2="144.14999"
       y1="296.85001"
       x1="138.39"
       stroke-miterlimit="10" /><polyline
       style="fill:none;stroke:#000000;stroke-width:2;stroke-linecap:round;stroke-linejoin:round;stroke-miterlimit:10"
       id="polyline3895"
       points="    52.96,191.03 52.96,200.8 52.96,206.04   "
       stroke-miterlimit="10" /><path
       inkscape:connector-curvature="0"
       style="fill:none;stroke:#000000;stroke-width:2;stroke-linecap:round;stroke-linejoin:round;stroke-miterlimit:10"
       id="path3897"
       d="m 57.48,181.36 c -2.41,2.26 -4.58,6.29 -4.52,9.67"
       stroke-miterlimit="10" /><line
       style="fill:none;stroke:#000000;stroke-width:2;stroke-linecap:round;stroke-linejoin:round;stroke-miterlimit:10"
       id="line3899"
       y2="241.72"
       x2="42.900002"
       y1="206.03999"
       x1="52.959999"
       stroke-miterlimit="10" /><polyline
       style="fill:none;stroke:#000000;stroke-width:2;stroke-linecap:round;stroke-linejoin:round;stroke-miterlimit:10"
       id="polyline3901"
       points="    387.05,175.83 387.05,116.45 387.05,116.08   "
       stroke-miterlimit="10" /><polyline
       style="fill:none;stroke:#000000;stroke-width:2;stroke-linecap:round;stroke-linejoin:round;stroke-miterlimit:10"
       id="polyline3903"
       points="    153.16,319.96 149.61,324.11 149.6,324.13 149.58,324.15   "
       stroke-miterlimit="10" /><path
       inkscape:connector-curvature="0"
       style="fill:none;stroke:#000000;stroke-width:2;stroke-linecap:round;stroke-linejoin:round;stroke-miterlimit:10"
       id="path3905"
       d="m 138.1,302.47 c -0.27,-0.569 -0.39,-1.229 -0.4,-1.91 -0.05,-1.279 0.29,-2.649 0.69,-3.71"
       stroke-miterlimit="10" /><path
       inkscape:connector-curvature="0"
       style="fill:none;stroke:#000000;stroke-width:2;stroke-linecap:round;stroke-linejoin:round;stroke-miterlimit:10"
       id="path3907"
       d="m 142.63,294.09 c -0.52,1.54 -1.13,4.11 -0.24,5.62"
       stroke-miterlimit="10" /><polyline
       style="fill:none;stroke:#000000;stroke-width:2;stroke-linecap:round;stroke-linejoin:round;stroke-miterlimit:10"
       id="polyline3909"
       points="    144.15,289.89 142.59,294.07 142.58,294.09   "
       stroke-miterlimit="10" /><line
       style="fill:none;stroke:#000000;stroke-width:2;stroke-linecap:round;stroke-linejoin:round;stroke-miterlimit:10"
       id="line3911"
       y2="319.95999"
       x2="153.16"
       y1="299.70999"
       x1="142.39"
       stroke-miterlimit="10" /><polyline
       style="fill:none;stroke:#000000;stroke-width:2;stroke-linecap:round;stroke-linejoin:round;stroke-miterlimit:10"
       id="polyline3913"
       points="    73.4,212.61 73.4,212.57 73.4,190.55 73.4,190.51   "
       stroke-miterlimit="10" /><path
       inkscape:connector-curvature="0"
       style="fill:none;stroke:#000000;stroke-width:2;stroke-linecap:round;stroke-linejoin:round;stroke-miterlimit:10"
       id="path3915"
       d="m 73.4,190.55 c -2.44,2.21 -4.59,6.34 -4.53,9.681"
       stroke-miterlimit="10" /><line
       style="fill:none;stroke:#000000;stroke-width:2;stroke-linecap:round;stroke-linejoin:round;stroke-miterlimit:10"
       id="line3917"
       y2="215.23"
       x2="68.870003"
       y1="200.23"
       x1="68.870003"
       stroke-miterlimit="10" /><polyline
       style="fill:none;stroke:#000000;stroke-width:2;stroke-linecap:round;stroke-linejoin:round;stroke-miterlimit:10"
       id="polyline3919"
       points="    68.87,215.23 58.85,250.83 58.82,250.92   "
       stroke-miterlimit="10" /><line
       style="fill:none;stroke:#000000;stroke-linecap:round;stroke-linejoin:round;stroke-miterlimit:10"
       id="line3921"
       y2="249.11"
       x2="55.720001"
       y1="243.53999"
       x1="46"
       stroke-miterlimit="10" /><line
       style="fill:none;stroke:#000000;stroke-linecap:round;stroke-linejoin:round;stroke-miterlimit:10"
       id="line3923"
       y2="215.23"
       x2="68.870003"
       y1="206.03999"
       x1="52.959999"
       stroke-miterlimit="10" /><line
       style="fill:none;stroke:#000000;stroke-linecap:round;stroke-linejoin:round;stroke-miterlimit:10"
       id="line3925"
       y2="198.42"
       x2="65.769997"
       y1="192.84"
       x1="56.099998"
       stroke-miterlimit="10" /><path
       inkscape:connector-curvature="0"
       style="fill:none;stroke:#000000;stroke-width:2;stroke-linecap:round;stroke-linejoin:round;stroke-miterlimit:10"
       id="path3927"
       d="M 120.81,93.17 C 120.87,78.76 132.16,67.5 143.87,60.72 160.41,51.17 180.81,47.2 199.75,47 c 19.12,-0.04 39.56,3.61 56.42,12.96 11.96,6.55 23.76,17.56 24.44,32.06 0.02,0.62 0.02,1.24 0,1.85 -0.41,13.6 -10.61,24.06 -21.681,30.88 -16.12,9.85 -36.55,14.09 -55.27,14.49 -19.1,0.42 -39.95,-3.16 -56.98,-12.1 C 133.88,120.44 120.93,108.7 120.81,93.17"
       stroke-miterlimit="10" /><path
       inkscape:connector-curvature="0"
       style="fill:none;stroke:#000000;stroke-width:2;stroke-linecap:round;stroke-linejoin:round;stroke-miterlimit:10"
       id="path3929"
       d="m 120.81,111.51 c 0.13,14.62 11.5,25.85 23.44,32.64 16.78,9.62 37.27,13.44 56.46,13.53 19.21,-0.08 39.69,-3.91 56.5,-13.53 11.83,-6.74 23.39,-18.09 23.4,-32.64"
       stroke-miterlimit="10" /><path
       inkscape:connector-curvature="0"
       style="fill:none;stroke:#000000;stroke-width:2;stroke-linecap:round;stroke-linejoin:round;stroke-miterlimit:10"
       id="path3931"
       d="m 84.64,102.31 c -0.61,8.67 -21.85,8.66 -22.49,0"
       stroke-miterlimit="10" /><path
       inkscape:connector-curvature="0"
       style="fill:none;stroke:#000000;stroke-width:2;stroke-linecap:round;stroke-linejoin:round;stroke-miterlimit:10"
       id="path3933"
       d="m 62.15,102.31 c 0.7,-8.59 21.76,-8.61 22.49,-0.04"
       stroke-miterlimit="10" /><path
       inkscape:connector-curvature="0"
       style="fill:none;stroke:#000000;stroke-width:2;stroke-linecap:round;stroke-linejoin:round;stroke-miterlimit:10"
       id="path3935"
       d="m 62.15,111.51 c 0.63,8.65 21.9,8.66 22.49,0"
       stroke-miterlimit="10" /><path
       inkscape:connector-curvature="0"
       style="fill:none;stroke:#000000;stroke-width:2;stroke-linecap:round;stroke-linejoin:round;stroke-miterlimit:10"
       id="path3937"
       d="m 212,28.84 c -0.72,8.6 -21.82,8.63 -22.54,0"
       stroke-miterlimit="10" /><path
       inkscape:connector-curvature="0"
       style="fill:none;stroke:#000000;stroke-width:2;stroke-linecap:round;stroke-linejoin:round;stroke-miterlimit:10"
       id="path3939"
       d="M 189.46,28.84 C 190.1,20.19 211.3,20.22 212,28.8"
       stroke-miterlimit="10" /><path
       inkscape:connector-curvature="0"
       style="fill:none;stroke:#000000;stroke-width:2;stroke-linecap:round;stroke-linejoin:round;stroke-miterlimit:10"
       id="path3941"
       d="m 189.46,38.04 c 0.72,8.62 21.82,8.6 22.54,0"
       stroke-miterlimit="10" /><path
       inkscape:connector-curvature="0"
       style="fill:none;stroke:#000000;stroke-width:2;stroke-linecap:round;stroke-linejoin:round;stroke-miterlimit:10"
       id="path3943"
       d="m 339.309,102.31 c -0.64,8.67 -21.899,8.65 -22.54,0"
       stroke-miterlimit="10" /><path
       inkscape:connector-curvature="0"
       style="fill:none;stroke:#000000;stroke-width:2;stroke-linecap:round;stroke-linejoin:round;stroke-miterlimit:10"
       id="path3945"
       d="m 316.769,102.31 c 0.721,-8.58 21.75,-8.62 22.54,-0.04"
       stroke-miterlimit="10" /><line
       style="fill:none;stroke:#000000;stroke-width:2;stroke-linecap:round;stroke-linejoin:round;stroke-miterlimit:10"
       id="line3947"
       y2="246.73"
       x2="132.53"
       y1="212.61"
       x1="73.400002"
       stroke-miterlimit="10" /><polyline
       style="fill:none;stroke:#000000;stroke-width:2;stroke-linecap:round;stroke-linejoin:round;stroke-miterlimit:10"
       id="polyline3949"
       points="    149.63,324.15 149.6,324.13 143.27,320.45 143.25,320.44   "
       stroke-miterlimit="10" /><line
       style="fill:none;stroke:#000000;stroke-linecap:round;stroke-linejoin:round;stroke-miterlimit:10"
       id="line3951"
       y2="295.76001"
       x2="126.48"
       y1="300.66"
       x1="134.96001"
       stroke-miterlimit="10" /><line
       style="fill:none;stroke:#000000;stroke-width:2;stroke-linecap:round;stroke-linejoin:round;stroke-miterlimit:10"
       id="line3953"
       y2="190.55"
       x2="73.400002"
       y1="181.36"
       x1="57.48"
       stroke-miterlimit="10" /><path
       inkscape:connector-curvature="0"
       style="fill:none;stroke:#000000;stroke-width:2;stroke-linecap:round;stroke-linejoin:round;stroke-miterlimit:10"
       id="path3955"
       d="m 316.769,111.51 c 0.631,8.62 21.9,8.67 22.54,0"
       stroke-miterlimit="10" /><path
       inkscape:connector-curvature="0"
       style="fill:none;stroke:#000000;stroke-width:2;stroke-linecap:round;stroke-linejoin:round;stroke-miterlimit:10"
       id="path3957"
       d="m 189.46,175.83 c 0.72,-8.62 21.82,-8.6 22.54,0 -0.72,8.63 -21.81,8.67 -22.54,0"
       stroke-miterlimit="10" /><path
       inkscape:connector-curvature="0"
       style="fill:none;stroke:#000000;stroke-width:2;stroke-linecap:round;stroke-linejoin:round;stroke-miterlimit:10"
       id="path3959"
       d="m 189.46,185.03 c 0.74,8.64 21.8,8.62 22.54,0"
       stroke-miterlimit="10" /><polyline
       style="fill:none;stroke:#000000;stroke-width:2;stroke-linecap:round;stroke-linejoin:round;stroke-miterlimit:10"
       id="polyline3961"
       points="    70.06,278.22 70.04,278.18 58.51,256.55 58.48,256.5   "
       stroke-miterlimit="10" /><path
       inkscape:connector-curvature="0"
       style="fill:none;stroke:#000000;stroke-width:2;stroke-linecap:round;stroke-linejoin:round;stroke-miterlimit:10"
       id="path3963"
       d="m 63.06,248.16 c -0.6,1.87 -1.1,3.72 -0.29,5.62"
       stroke-miterlimit="10" /><polyline
       style="fill:none;stroke:#000000;stroke-width:2;stroke-linecap:round;stroke-linejoin:round;stroke-miterlimit:10"
       id="polyline3965"
       points="    64.58,243.96 58.85,250.83 58.77,250.92   "
       stroke-miterlimit="10" /><polyline
       style="fill:none;stroke:#000000;stroke-width:2;stroke-linecap:round;stroke-linejoin:round;stroke-miterlimit:10"
       id="polyline3967"
       points="    280.61,111.51 280.61,93.87 280.61,93.12   "
       stroke-miterlimit="10" /><polyline
       style="fill:none;stroke:#000000;stroke-width:2;stroke-linecap:round;stroke-linejoin:round;stroke-miterlimit:10"
       id="polyline3969"
       points="    73.54,273.98 70.04,278.18 70.03,278.2 70.01,278.22   "
       stroke-miterlimit="10" /><line
       style="fill:none;stroke:#000000;stroke-width:2;stroke-linecap:round;stroke-linejoin:round;stroke-miterlimit:10"
       id="line3971"
       y2="273.98001"
       x2="73.540001"
       y1="253.78"
       x1="62.77"
       stroke-miterlimit="10" /><polyline
       style="fill:none;stroke:#000000;stroke-width:2;stroke-linecap:round;stroke-linejoin:round;stroke-miterlimit:10"
       id="polyline3973"
       points="    64.58,243.96 63.02,248.14 63.01,248.16   "
       stroke-miterlimit="10" /><path
       inkscape:connector-curvature="0"
       style="fill:none;stroke:#000000;stroke-width:2;stroke-linecap:round;stroke-linejoin:round;stroke-miterlimit:10"
       id="path3975"
       d="m 58.53,256.54 c -0.32,-0.521 -0.44,-1.23 -0.44,-2 0,-1.29 0.35,-2.73 0.73,-3.62"
       stroke-miterlimit="10" /><polyline
       style="fill:none;stroke:#000000;stroke-width:2;stroke-linecap:round;stroke-linejoin:round;stroke-miterlimit:10"
       id="polyline3977"
       points="    84.64,111.51 84.64,102.31 84.64,102.27   "
       stroke-miterlimit="10" /><polyline
       style="fill:none;stroke:#000000;stroke-width:2;stroke-linecap:round;stroke-linejoin:round;stroke-miterlimit:10"
       id="polyline3979"
       points="    212,38.04 212,28.84 212,28.8   "
       stroke-miterlimit="10" /><polyline
       style="fill:none;stroke:#000000;stroke-width:2;stroke-linecap:round;stroke-linejoin:round;stroke-miterlimit:10"
       id="polyline3981"
       points="    339.309,111.51 339.309,102.31 339.309,102.27   "
       stroke-miterlimit="10" /><polyline
       style="fill:none;stroke:#000000;stroke-width:2;stroke-linecap:round;stroke-linejoin:round;stroke-miterlimit:10"
       id="polyline3983"
       points="    212,185.03 212,175.83 212,175.78   "
       stroke-miterlimit="10" /></g></svg>