<?xml version="1.0" encoding="UTF-8" standalone="no"?>
<!-- Created with Inkscape (http://www.inkscape.org/) -->

<svg
   xmlns:dc="http://purl.org/dc/elements/1.1/"
   xmlns:cc="http://creativecommons.org/ns#"
   xmlns:rdf="http://www.w3.org/1999/02/22-rdf-syntax-ns#"
   xmlns:svg="http://www.w3.org/2000/svg"
   xmlns="http://www.w3.org/2000/svg"
   xmlns:sodipodi="http://sodipodi.sourceforge.net/DTD/sodipodi-0.dtd"
   xmlns:inkscape="http://www.inkscape.org/namespaces/inkscape"
   width="140"
   height="140"
   id="svg2"
   version="1.1"
   inkscape:version="0.91 r13725"
   sodipodi:docname="_img_input_binary_pushbuttonswitch.svg"
   inkscape:export-filename="_img_pushbuttonsw.png"
   inkscape:export-xdpi="600"
   inkscape:export-ydpi="600">
  <title
     id="title4155">Push Button Switch</title>
  <defs
     id="defs4" />
  <sodipodi:namedview
     id="base"
     pagecolor="#ffffff"
     bordercolor="#666666"
     borderopacity="1.0"
     inkscape:pageopacity="0.0"
     inkscape:pageshadow="2"
     inkscape:zoom="2.8284271"
     inkscape:cx="-3.865204"
     inkscape:cy="61.576066"
     inkscape:document-units="mm"
     inkscape:current-layer="layer2"
     showgrid="false"
     showguides="true"
     inkscape:guide-bbox="true"
     inkscape:snap-bbox="true"
     inkscape:object-nodes="true"
     inkscape:snap-bbox-edge-midpoints="true"
     inkscape:window-width="1366"
     inkscape:window-height="705"
     inkscape:window-x="-8"
     inkscape:window-y="-8"
     inkscape:window-maximized="1"
     inkscape:snap-object-midpoints="true"
     fit-margin-top="0"
     fit-margin-left="0"
     fit-margin-right="0"
     fit-margin-bottom="0"
     inkscape:snap-global="true"
     inkscape:snap-bbox-midpoints="true" />
  <metadata
     id="metadata7">
    <rdf:RDF>
      <cc:Work
         rdf:about="">
        <dc:format>image/svg+xml</dc:format>
        <dc:type
           rdf:resource="http://purl.org/dc/dcmitype/StillImage" />
        <dc:title>Push Button Switch</dc:title>
        <cc:license
           rdf:resource="http://artlibre.org/licence/lal" />
      </cc:Work>
      <cc:License
         rdf:about="http://artlibre.org/licence/lal">
        <cc:permits
           rdf:resource="http://creativecommons.org/ns#Reproduction" />
        <cc:permits
           rdf:resource="http://creativecommons.org/ns#Distribution" />
        <cc:permits
           rdf:resource="http://creativecommons.org/ns#DerivativeWorks" />
        <cc:requires
           rdf:resource="http://creativecommons.org/ns#ShareAlike" />
        <cc:requires
           rdf:resource="http://creativecommons.org/ns#Notice" />
        <cc:requires
           rdf:resource="http://creativecommons.org/ns#Attribution" />
      </cc:License>
    </rdf:RDF>
  </metadata>
  <g
     inkscape:groupmode="layer"
     id="layer2"
     inkscape:label="sensor"
     transform="translate(-98.116962,-411.80251)">
    <g
       id="g4236"
       transform="translate(-0.35355339,-39.244427)">
      <path
         inkscape:connector-curvature="0"
         id="path3859-4-1"
         d="m 222.10023,528.028 15.54788,0.008"
         style="fill:none;stroke:#b08200;stroke-width:3.4966805;stroke-linecap:butt;stroke-linejoin:miter;stroke-miterlimit:4;stroke-dasharray:none;stroke-opacity:1"
         sodipodi:nodetypes="cc" />
      <path
         inkscape:connector-curvature="0"
         id="path3859-4-2"
         d="m 222.45378,511.71665 15.54788,0.008"
         style="fill:none;stroke:#b08200;stroke-width:3.4966805;stroke-linecap:butt;stroke-linejoin:miter;stroke-miterlimit:4;stroke-dasharray:none;stroke-opacity:1"
         sodipodi:nodetypes="cc" />
      <path
         sodipodi:nodetypes="cscccccc"
         inkscape:connector-curvature="0"
         id="path3900"
         d="m 98.328369,502.63517 c 0,3.20344 0,14.8974 0,18.09292 0,3.19553 0,14.03229 0,17.09411 0.0034,0.85566 0.329474,1.15093 1.025165,1.15093 l 12.543686,0 c 0,-12.34216 0,-26.13069 0,-37.33984 l -12.543686,0 c -0.80197,0 -1.021859,0.19159 -1.025165,1.00188 z"
         style="fill:#ff0000;fill-opacity:1;stroke:#008649;stroke-width:0.42281494;stroke-miterlimit:4;stroke-dasharray:none;stroke-opacity:1" />
      <path
         sodipodi:nodetypes="ccccccc"
         inkscape:connector-curvature="0"
         id="rect3946"
         d="m 204.78107,502.2347 15.70848,0 c 1.33185,0.0142 1.98274,0.75843 1.96858,1.96277 l 0,32.13444 c 0.003,1.15474 -0.63229,2.04028 -1.96858,2.04029 l -15.70848,0 z"
         style="fill:#1e1e1e;fill-opacity:1;stroke:#141414;stroke-width:0.44883919;stroke-miterlimit:4;stroke-dasharray:none;stroke-opacity:1" />
      <path
         sodipodi:nodetypes="ccccccccccccc"
         inkscape:connector-curvature="0"
         id="rect3821"
         d="m 112.85947,498.96197 c -1.09043,0.0189 -1.43877,0.74942 -1.4402,2.62295 l 0,18.73154 0,18.70504 c 0.002,2.08171 0.25719,2.64187 1.4402,2.62295 l 45.04942,0 45.04942,0 c 1.10566,0 1.4693,-0.50865 1.4402,-2.62295 l 0,-18.70504 0,-18.73154 c 0.0291,-2.06078 -0.30543,-2.59618 -1.4402,-2.62295 l -45.04942,0 z"
         style="fill:#6f6f6f;fill-opacity:1;stroke:#5b5b5b;stroke-width:0.31254184;stroke-miterlimit:4;stroke-dasharray:none;stroke-opacity:1" />
      <path
         sodipodi:nodetypes="ccccccccc"
         inkscape:connector-curvature="0"
         id="path4187-3"
         d="m 141.90842,489.03806 -10.72573,0 c -1.98071,0.11212 -3.84932,3.73719 -3.77457,5.23207 l 0,26.03308 0,26.03308 c -0.0528,1.26844 1.39623,5.23206 3.77457,5.23206 l 10.72573,0 0,-31.26514 z"
         style="fill:#6f6f6f;fill-opacity:1;stroke:#494949;stroke-width:0.35433072;stroke-linecap:butt;stroke-linejoin:miter;stroke-miterlimit:4;stroke-dasharray:none;stroke-opacity:1" />
      <path
         id="path4187-3-2"
         d="m 131.18815,489.02812 c -1.98071,0.11211 -3.85365,3.73745 -3.77891,5.23233 l 0,4.28101 c 1.33269,2.01444 3.40221,4.80767 5.44375,6.07796 l 9.06409,0 0,-15.5913 -10.72893,0 z"
         style="fill:#6f6f6f;fill-opacity:1;stroke:#494949;stroke-width:0.35433072;stroke-linecap:butt;stroke-linejoin:miter;stroke-miterlimit:4;stroke-dasharray:none;stroke-opacity:1"
         inkscape:connector-curvature="0" />
      <path
         id="path4187-3-2-2"
         d="m 131.17949,551.56835 c -1.98071,-0.11211 -3.85365,-3.73745 -3.77891,-5.23233 l 0,-4.281 c 1.33269,-2.01445 3.40221,-4.80768 5.44375,-6.07797 l 9.06409,0 0,15.5913 -10.72893,0 z"
         style="fill:#6f6f6f;fill-opacity:1;stroke:#494949;stroke-width:0.35433072;stroke-linecap:butt;stroke-linejoin:miter;stroke-miterlimit:4;stroke-dasharray:none;stroke-opacity:1"
         inkscape:connector-curvature="0" />
      <path
         inkscape:connector-curvature="0"
         id="path4187-3-2-4"
         d="m 132.85299,504.65491 c -2.04154,1.27029 -4.11106,4.06352 -5.44375,6.07797 0,3.44829 0.0138,6.09859 0.0264,9.51333 -0.0126,3.41475 -0.0264,6.06505 -0.0264,9.51334 1.33269,2.01444 3.40221,4.80768 5.44375,6.07796 l 9.06409,0 0,-15.5913 0,-15.5913 -9.06409,0 z"
         style="fill:#6f6f6f;fill-opacity:1;stroke:#494949;stroke-width:0.35433072;stroke-linecap:butt;stroke-linejoin:miter;stroke-miterlimit:4;stroke-dasharray:none;stroke-opacity:1" />
      <path
         sodipodi:nodetypes="ccccccccc"
         inkscape:connector-curvature="0"
         id="path4187-3-6"
         d="m 145.31606,489.09506 10.72573,0 c 1.98071,0.11211 3.84932,3.73719 3.77457,5.23207 l 0,26.03308 0,26.03308 c 0.0529,1.26844 -1.39623,5.23206 -3.77457,5.23206 l -10.72573,0 0,-31.26514 z"
         style="fill:#6f6f6f;fill-opacity:1;stroke:#494949;stroke-width:0.35433072;stroke-linecap:butt;stroke-linejoin:miter;stroke-miterlimit:4;stroke-dasharray:none;stroke-opacity:1" />
      <path
         inkscape:connector-curvature="0"
         id="path4187-3-2-22"
         d="m 156.03633,489.08512 c 1.98071,0.11211 3.85365,3.73745 3.77891,5.23233 l 0,4.281 c -1.33269,2.01445 -3.40221,4.80768 -5.44375,6.07797 l -9.06409,0 0,-15.5913 10.72893,0 z"
         style="fill:#6f6f6f;fill-opacity:1;stroke:#494949;stroke-width:0.35433072;stroke-linecap:butt;stroke-linejoin:miter;stroke-miterlimit:4;stroke-dasharray:none;stroke-opacity:1" />
      <path
         id="path4187-3-2-2-1"
         d="m 156.04499,551.62535 c 1.98071,-0.11211 3.85365,-3.73746 3.77891,-5.23233 l 0,-4.28101 c -1.33269,-2.01444 -3.40221,-4.80767 -5.44375,-6.07796 l -9.06409,0 0,15.5913 10.72893,0 z"
         style="fill:#6f6f6f;fill-opacity:1;stroke:#494949;stroke-width:0.35433072;stroke-linecap:butt;stroke-linejoin:miter;stroke-miterlimit:4;stroke-dasharray:none;stroke-opacity:1"
         inkscape:connector-curvature="0" />
      <path
         inkscape:connector-curvature="0"
         id="path4187-3-2-4-2"
         d="m 154.37149,504.71191 c 2.04154,1.27029 4.11106,4.06352 5.44375,6.07796 0,3.4483 -0.0138,6.09859 -0.0264,9.51334 0.0126,3.41475 0.0264,6.06504 0.0264,9.51334 -1.33269,2.01444 -3.40221,4.80767 -5.44375,6.07796 l -9.06409,0 0,-15.5913 0,-15.5913 9.06409,0 z"
         style="fill:#6f6f6f;fill-opacity:1;stroke:#494949;stroke-width:0.35433072;stroke-linecap:butt;stroke-linejoin:miter;stroke-miterlimit:4;stroke-dasharray:none;stroke-opacity:1" />
    </g>
  </g>
</svg>
