<?xml version="1.0" encoding="UTF-8" standalone="no"?>
<!-- Generator: Adobe Illustrator 12.0.0, SVG Export Plug-In . SVG Version: 6.00 Build 51448)  -->

<svg
   xmlns:dc="http://purl.org/dc/elements/1.1/"
   xmlns:cc="http://creativecommons.org/ns#"
   xmlns:rdf="http://www.w3.org/1999/02/22-rdf-syntax-ns#"
   xmlns:svg="http://www.w3.org/2000/svg"
   xmlns="http://www.w3.org/2000/svg"
   xmlns:sodipodi="http://sodipodi.sourceforge.net/DTD/sodipodi-0.dtd"
   xmlns:inkscape="http://www.inkscape.org/namespaces/inkscape"
   version="1.1"
   id="Layer_1"
   sodipodi:docname="_img_input_binary_tactswitch.svg"
   inkscape:version="0.91 r13725"
   width="177.65208"
   height="131.28471"
   viewBox="0 0 177.65209 131.28471"
   overflow="visible"
   enable-background="new 0 0 400 330"
   xml:space="preserve"
   style="overflow:visible"><metadata
     id="metadata3985"><rdf:RDF><cc:Work
         rdf:about=""><dc:format>image/svg+xml</dc:format><dc:type
           rdf:resource="http://purl.org/dc/dcmitype/StillImage" /><dc:title></dc:title></cc:Work></rdf:RDF></metadata><defs
     id="defs3651"><inkscape:perspective
       inkscape:persp3d-origin="82.016504 : 35.739666 : 1"
       sodipodi:type="inkscape:persp3d"
       inkscape:vp_z="164.033 : 53.609499 : 1"
       inkscape:vp_y="0 : 999.99997 : 0"
       inkscape:vp_x="0 : 53.609499 : 1"
       id="perspective3567" /><inkscape:perspective
       inkscape:persp3d-origin="0.50000001 : 0.33333332 : 1"
       sodipodi:type="inkscape:persp3d"
       inkscape:vp_z="1 : 0.49999998 : 1"
       inkscape:vp_y="0 : 999.99997 : 0"
       inkscape:vp_x="0 : 0.49999998 : 1"
       id="perspective5121" /><inkscape:perspective
       inkscape:persp3d-origin="0.50000001 : 0.33333332 : 1"
       sodipodi:type="inkscape:persp3d"
       inkscape:vp_z="1 : 0.49999998 : 1"
       inkscape:vp_y="0 : 999.99997 : 0"
       inkscape:vp_x="0 : 0.49999998 : 1"
       id="perspective2950" /><inkscape:perspective
       inkscape:persp3d-origin="0.50000001 : 0.33333332 : 1"
       sodipodi:type="inkscape:persp3d"
       inkscape:vp_z="1 : 0.49999998 : 1"
       inkscape:vp_y="0 : 999.99997 : 0"
       inkscape:vp_x="0 : 0.49999998 : 1"
       id="perspective3212" /></defs><sodipodi:namedview
     borderopacity="1"
     showgrid="false"
     inkscape:cx="135.26443"
     inkscape:cy="41.405049"
     inkscape:zoom="4"
     gridtolerance="10"
     inkscape:window-maximized="1"
     bordercolor="#666666"
     guidetolerance="10"
     objecttolerance="10"
     inkscape:pageshadow="2"
     inkscape:pageopacity="0"
     inkscape:window-height="987"
     inkscape:window-width="1680"
     inkscape:window-y="22"
     inkscape:window-x="-8"
     inkscape:current-layer="Layer_1"
     pagecolor="#ffffff"
     id="namedview3561"
     fit-margin-top="0"
     fit-margin-left="0"
     fit-margin-right="0"
     fit-margin-bottom="0" /><g
     id="g4705"><path
       inkscape:connector-curvature="0"
       style="fill:#a06e6e"
       id="path3661"
       d="m 154.53448,44.934372 0,4.362445 c -0.30348,4.11113 -10.38879,4.087421 -10.68799,0 l 0,-4.362445 c 0.30394,4.101647 10.38499,4.11113 10.68799,0 z" /><path
       inkscape:connector-curvature="0"
       style="fill:#a06e6e"
       id="path3663"
       d="m 154.53448,44.915405 0,0.01897 c -0.30348,4.11113 -10.38405,4.101647 -10.68799,0 0.34188,-4.068454 10.31338,-4.087421 10.68799,-0.01897 z" /><path
       inkscape:connector-curvature="0"
       style="fill:#2e3436"
       id="path3665"
       d="m 154.53448,44.934372 0,4.362445 c -0.30348,4.11113 -10.38879,4.087421 -10.68799,0 l 0,-4.362445 c 0.30394,4.101647 10.38499,4.11113 10.68799,0 z" /><path
       inkscape:connector-curvature="0"
       style="fill:#2e3436"
       id="path3667"
       d="m 154.53448,44.915405 0,0.01897 c -0.30348,4.11113 -10.38405,4.101647 -10.68799,0 0.34188,-4.068454 10.31338,-4.087421 10.68799,-0.01897 z" /><path
       inkscape:connector-curvature="0"
       style="fill:#2e3436"
       id="path3669"
       d="m 94.167247,79.795998 0,4.362444 c -0.350893,4.087422 -10.337098,4.096905 -10.68799,0 l 0,-4.362444 c 0.34615,4.11113 10.346581,4.092163 10.68799,0 z" /><path
       inkscape:connector-curvature="0"
       style="fill:#2e3436"
       id="path3671"
       d="m 83.479257,79.795998 c 0.341408,-4.087422 10.346581,-4.077938 10.68799,0 -0.341409,4.092163 -10.34184,4.11113 -10.68799,0 z" /><path
       inkscape:connector-curvature="0"
       style="fill:#a40000"
       id="path3673"
       d="m 126.70065,40.932303 0,8.364514 c -0.005,6.899302 -5.48624,12.281231 -11.09578,15.477196 -7.97095,4.5616 -17.682127,6.377705 -26.791102,6.415639 C 79.714277,71.146976 69.998353,69.335613 62.041633,64.774013 56.379938,61.554339 50.988525,56.229311 50.926882,49.296817 l 0,-8.696439 c 0.0569,7.363997 6.197517,12.930856 12.267006,16.107854 8.075265,4.239158 17.961893,5.936718 27.018708,5.737563 8.876627,-0.189671 18.563624,-2.200189 26.207864,-6.870851 5.24916,-3.233899 10.08578,-8.193809 10.28019,-14.642641 z" /><path
       inkscape:connector-curvature="0"
       style="fill:#2e3436"
       id="path3675"
       d="m 33.775835,44.934372 0,4.362445 c -0.279766,4.106388 -10.365549,4.101647 -10.664281,0 l 0,-4.362445 c 0.303474,4.106389 10.375032,4.11113 10.664281,0 z" /><path
       inkscape:connector-curvature="0"
       style="fill:#2e3436"
       id="path3677"
       d="m 33.775835,44.915405 0,0.01897 c -0.289249,4.11113 -10.360807,4.106389 -10.664281,0 0.331925,-4.073196 10.31813,-4.082679 10.664281,-0.01897 z" /><path
       inkscape:connector-curvature="0"
       style="fill:#babdb6"
       id="path3679"
       d="m 173.39778,51.487523 c 0.0142,0.938874 -0.78713,1.735495 -1.55056,2.166997 l -0.01,-0.01897 -79.254245,45.77248 c -2.029485,1.20916 -5.505215,1.19493 -7.544184,0 l -0.322442,-0.185404 0.322442,-0.559531 0,-0.725494 0.275023,-0.569014 c 2.209674,1.053151 5.106906,1.024226 7.254936,-0.123287 l -0.0047,-0.0095 79.27321,-45.748771 c 0.97728,-0.578498 1.49841,-1.303992 1.56005,-2.038969 l 0,2.039443 z" /><path
       inkscape:connector-curvature="0"
       style="fill:#a06e6e"
       id="path3681"
       d="M 28.446065,86.775909 20.897139,82.41868 c -1.142771,1.071645 -2.171739,2.982585 -2.143289,4.585309 l 0,4.632727 L 2.034306,81.986704 C 1.2424274,81.488816 0.4789995,80.805998 0.47425771,79.795998 l 0,-28.303733 c 0,0.782395 0.51685489,1.56479 1.56004829,2.166997 l 83.004999,47.939478 c 2.238124,1.1807 5.291835,1.19967 7.529959,0.01 l -0.0047,-0.01 83.047676,-47.939478 c 0.97728,-0.58324 1.4984,-1.294508 1.56005,-2.020002 l 0,28.156738 c 0.01,0.991033 -0.78714,1.692818 -1.55057,2.185964 l -0.01,-0.01423 -18.97663,10.953531 0,0.0047 -2.38085,1.375119 -4.73183,2.73127 -56.939393,32.874808 c -2.029485,1.20916 -5.505215,1.19968 -7.544184,0 L 66.176,119.01528 l 0,-10.43668 -7.548926,-4.35769 c -1.213898,1.18544 -2.110096,2.81188 -2.143289,4.53789 0,0.009 0,0.0142 0,0.0237 l 0,4.6332 -28.037718,-16.179461 0,-0.01897 0,-10.441418 z" /><path
       inkscape:connector-curvature="0"
       style="fill:#a06e6e"
       id="path3687"
       d="m 94.167247,10.096456 0,4.362445 c -0.341409,4.077937 -10.346582,4.087421 -10.68799,0 l 0,-4.362445 c 0.341408,4.092163 10.346581,4.077937 10.68799,0 z" /><path
       inkscape:connector-curvature="0"
       style="fill:#a06e6e"
       id="path3689"
       d="m 94.167247,10.077489 0,0.01897 c -0.341409,4.077937 -10.346582,4.092163 -10.68799,0 0.303474,-4.1016469 10.356065,-4.0874216 10.68799,-0.01897 z" /><path
       inkscape:connector-curvature="0"
       style="fill:#a06e6e"
       id="path3691"
       d="m 94.167247,79.795998 c -0.341409,-4.077938 -10.346582,-4.087422 -10.68799,0 l 0,4.362444 c 0.350892,4.096905 10.337097,4.087422 10.68799,0 l 0,-4.362444 z M 83.479257,14.458901 c 0.341408,4.087421 10.346581,4.077937 10.68799,0 l 0,-4.362445 0,-0.01897 C 93.835322,6.0090344 83.782731,5.9948091 83.479257,10.096456 l 0,4.362445 z m 89.918523,34.989653 c -0.0616,0.734977 -0.58276,1.460471 -1.56005,2.038969 l -79.273208,45.748771 0.0047,0.0095 c -2.14803,1.147513 -5.045262,1.175964 -7.254935,0.123287 -0.09484,-0.03793 -0.18493,-0.08535 -0.275024,-0.132296 L 5.7850603,51.463814 l -0.00474,0.0047 C 4.7560923,50.856865 4.248721,50.079212 4.248721,49.301559 l 0,-0.0047 c 0,-0.782395 0.5215966,-1.560048 1.5600482,-2.166997 L 85.039305,1.3573404 l 0.0095,0.014225 c 2.038969,-1.19018882 5.509958,-1.20441418 7.534702,0.00474 L 171.83773,47.12982 c 1.10484,0.644883 1.62644,1.488921 1.56005,2.318734 z M 88.358557,18.707543 c -8.980947,0.09483 -18.654194,1.977325 -26.497112,6.505733 -5.552634,3.214932 -10.906112,8.554185 -10.934563,15.387102 l 0,8.696439 c 0.06164,6.932494 5.453056,12.257522 11.114751,15.477196 7.95672,4.5616 17.672644,6.372963 26.772135,6.415639 9.108975,-0.03793 18.820152,-1.854039 26.791102,-6.415639 5.60954,-3.195965 11.09104,-8.577894 11.09578,-15.477196 l 0,-8.364514 c 0.009,-0.289249 0.009,-0.58324 0,-0.877231 C 126.37774,33.17948 120.7829,27.958771 115.11172,24.8529 107.1166,20.419328 97.424855,18.688576 88.358557,18.707543 Z m 66.175923,30.589274 0,-4.362445 0,-0.01897 c -0.37461,-4.068454 -10.34611,-4.049487 -10.68799,0.01897 l 0,4.362445 c 0.2992,4.087421 10.38499,4.11113 10.68799,0 z m -120.758645,0 0,-4.362445 0,-0.01897 C 33.429684,40.85169 23.443479,40.861173 23.111554,44.934372 l 0,4.362445 c 0.298732,4.101647 10.384515,4.106388 10.664281,0 z" /><path
       inkscape:connector-curvature="0"
       style="fill:#2e3436;fill-opacity:1"
       id="path3705"
       d="m 23.725565,81.534323 7.548926,4.357229 c -1.156996,1.047935 -2.176481,3.006294 -2.14803,4.590525 l 0,7.112682 -7.544185,-4.357703 0,-2.484697 0,-4.632727 c -0.02845,-1.602724 1.000518,-3.513665 2.143289,-4.585309 z" /><path
       inkscape:connector-curvature="0"
       style="fill:#a06e6e"
       id="path3713"
       d="m 4.248721,49.296817 0,0.0047 0,2.185964 c -0.014225,0.943616 0.7918786,1.740236 1.5600482,2.171739 l 78.9080938,45.563841 0.322442,0.185404 c 2.038969,1.194935 5.514699,1.209155 7.544185,0 l 79.25424,-45.77248 0.01,0.01897 c 0.76296,-0.431502 1.56479,-1.228123 1.55057,-2.166997 l 0,-2.038969 c 0.0669,-0.829812 -0.45521,-1.673851 -1.56005,-2.318734 l 0.005,-0.0095 3.76972,2.17648 c 1.10484,0.678076 1.62691,1.517372 1.56005,2.342444 -0.0616,0.725493 -0.58277,1.436761 -1.56005,2.020001 l -83.047673,47.93947 0.0047,0.01 c -2.238124,1.19019 -5.291835,1.17122 -7.529959,-0.01 L 2.034306,53.659262 C 0.9911126,53.057055 0.47425771,52.27466 0.47425771,51.492265 l 0,-0.0047 c 0,-0.782395 0.51685489,-1.56479 1.54108109,-2.181222 l -0.00474,-0.0095 3.7981722,-2.166997 c -1.0384534,0.606923 -1.56005,1.384576 -1.56005,2.166971 z" /><path
       inkscape:connector-curvature="0"
       style="fill:#a06e6e"
       id="path3715"
       d="m 5.7850603,51.463814 79.2542447,45.77248 c 0.09009,0.04742 0.180188,0.09436 0.275024,0.132296 l -0.275024,0.569014 0,0.725494 -0.322442,0.559531 L 5.8087692,53.659262 C 5.0405996,53.227759 4.2344956,52.431139 4.248721,51.487523 l 0,-2.185964 c 0,0.777653 0.5073713,1.555306 1.5315975,2.166997 l 0.00474,-0.0047 z" /><path
       inkscape:connector-curvature="0"
       style="fill:#babdb6"
       id="path3717"
       d="m 5.7850603,51.463814 79.2542447,45.77248 c 0.09009,0.04742 0.180188,0.09436 0.275024,0.132296 l -0.275024,0.569014 0,0.725494 -0.322442,0.559531 L 5.8087692,53.659262 C 5.0405996,53.227759 4.2344956,52.431139 4.248721,51.487523 l 0,-2.185964 c 0,0.777653 0.5073713,1.555306 1.5315975,2.166997 l 0.00474,-0.0047 z" /><path
       inkscape:connector-curvature="0"
       style="fill:#2e3436"
       id="path3719"
       d="M 28.446065,86.775909 20.897139,82.41868 c -1.142771,1.071645 -2.171739,2.982585 -2.143289,4.585309 l 0,4.632727 L 2.034306,81.986704 C 1.2424274,81.488816 0.4789995,80.805998 0.47425771,79.795998 l 0,-28.303733 c 0,0.782395 0.51685489,1.56479 1.56004829,2.166997 l 83.004999,47.939478 c 2.238124,1.1807 5.291835,1.19967 7.529959,0.01 l -0.0047,-0.01 83.047676,-47.939478 c 0.97728,-0.58324 1.4984,-1.294508 1.56005,-2.020002 l 0,28.156738 c 0.01,0.991033 -0.78714,1.692818 -1.55057,2.185964 l -0.01,-0.01423 -18.97663,10.953531 0,0.0047 -2.38085,1.375119 -4.73183,2.73127 -56.939393,32.874808 c -2.029485,1.20916 -5.505215,1.19968 -7.544184,0 L 66.176,119.01528 l 0,-10.43668 -7.548926,-4.35769 c -1.213898,1.18544 -2.110096,2.81188 -2.143289,4.53789 0,0.009 0,0.0142 0,0.0237 l 0,4.6332 -28.037718,-16.179461 0,-0.01897 0,-10.441418 z" /><path
       inkscape:connector-curvature="0"
       style="fill:#2e3436"
       id="path3725"
       d="m 94.167247,10.096456 0,4.362445 c -0.341409,4.077937 -10.346582,4.087421 -10.68799,0 l 0,-4.362445 c 0.341408,4.092163 10.346581,4.077937 10.68799,0 z" /><path
       inkscape:connector-curvature="0"
       style="fill:#2e3436"
       id="path3727"
       d="m 94.167247,10.077489 0,0.01897 c -0.341409,4.077937 -10.346582,4.092163 -10.68799,0 0.303474,-4.1016469 10.356065,-4.0874216 10.68799,-0.01897 z" /><path
       inkscape:connector-curvature="0"
       style="fill:#babdb6"
       id="path3729"
       d="m 94.167247,79.795998 c -0.341409,-4.077938 -10.346582,-4.087422 -10.68799,0 l 0,4.362444 c 0.350892,4.096905 10.337097,4.087422 10.68799,0 l 0,-4.362444 z M 83.479257,14.458901 c 0.341408,4.087421 10.346581,4.077937 10.68799,0 l 0,-4.362445 0,-0.01897 C 93.835322,6.0090344 83.782731,5.9948091 83.479257,10.096456 l 0,4.362445 z m 89.918523,34.989653 c -0.0616,0.734977 -0.58276,1.460471 -1.56005,2.038969 l -79.273208,45.748771 0.0047,0.0095 c -2.14803,1.147513 -5.045262,1.175964 -7.254935,0.123287 -0.09484,-0.03793 -0.18493,-0.08535 -0.275024,-0.132296 L 5.7850603,51.463814 l -0.00474,0.0047 C 4.7560923,50.856865 4.248721,50.079212 4.248721,49.301559 l 0,-0.0047 c 0,-0.782395 0.5215966,-1.560048 1.5600482,-2.166997 L 85.039305,1.3573404 l 0.0095,0.014225 c 2.038969,-1.19018882 5.509958,-1.20441418 7.534702,0.00474 L 171.83773,47.12982 c 1.10484,0.644883 1.62644,1.488921 1.56005,2.318734 z M 88.358557,18.707543 c -8.980947,0.09483 -18.654194,1.977325 -26.497112,6.505733 -5.552634,3.214932 -10.906112,8.554185 -10.934563,15.387102 l 0,8.696439 c 0.06164,6.932494 5.453056,12.257522 11.114751,15.477196 7.95672,4.5616 17.672644,6.372963 26.772135,6.415639 9.108975,-0.03793 18.820152,-1.854039 26.791102,-6.415639 5.60954,-3.195965 11.09104,-8.577894 11.09578,-15.477196 l 0,-8.364514 c 0.009,-0.289249 0.009,-0.58324 0,-0.877231 C 126.37774,33.17948 120.7829,27.958771 115.11172,24.8529 107.1166,20.419328 97.424855,18.688576 88.358557,18.707543 Z m 66.175923,30.589274 0,-4.362445 0,-0.01897 c -0.37461,-4.068454 -10.34611,-4.049487 -10.68799,0.01897 l 0,4.362445 c 0.2992,4.087421 10.38499,4.11113 10.68799,0 z m -120.758645,0 0,-4.362445 0,-0.01897 C 33.429684,40.85169 23.443479,40.861173 23.111554,44.934372 l 0,4.362445 c 0.298732,4.101647 10.384515,4.106388 10.664281,0 z" /><path
       inkscape:connector-curvature="0"
       style="fill:#2e3436;fill-opacity:1"
       id="path3733"
       d="m 66.088084,105.83861 c -1.218639,1.19019 -2.114837,2.81615 -2.14803,4.54263 0,0.009 0,0.0138 0,0.0237 l 0,7.09372 -0.0047,0.0142 -7.539442,-4.36244 0,-0.0142 0,-2.46051 0,-4.6332 c 0,-0.009 0,-0.0142 0,-0.0237 0.03319,-1.72649 0.92939,-3.35245 2.143288,-4.53789 l 7.548926,4.3577 z" /><path
       inkscape:connector-curvature="0"
       style="fill:#2e3436"
       id="path3751"
       d="m 4.248721,49.296817 0,0.0047 0,2.185964 c -0.014225,0.943616 0.7918786,1.740236 1.5600482,2.171739 l 78.9080938,45.563841 0.322442,0.185404 c 2.038969,1.194935 5.514699,1.209155 7.544185,0 l 79.25424,-45.77248 0.01,0.01897 c 0.76296,-0.431502 1.56479,-1.228123 1.55057,-2.166997 l 0,-2.038969 c 0.0669,-0.829812 -0.45521,-1.673851 -1.56005,-2.318734 l 0.005,-0.0095 3.76972,2.17648 c 1.10484,0.678076 1.62691,1.517372 1.56005,2.342444 -0.0616,0.725493 -0.58277,1.436761 -1.56005,2.020001 l -83.047673,47.93947 0.0047,0.01 c -2.238124,1.19019 -5.291835,1.17122 -7.529959,-0.01 L 2.034306,53.659262 C 0.9911126,53.057055 0.47425771,52.27466 0.47425771,51.492265 l 0,-0.0047 c 0,-0.782395 0.51685489,-1.56479 1.54108109,-2.181222 l -0.00474,-0.0095 3.7981722,-2.166997 c -1.0384534,0.606923 -1.56005,1.384576 -1.56005,2.166971 z" /><path
       inkscape:connector-curvature="0"
       style="fill:#a40000"
       id="path3753"
       d="m 126.70065,40.055072 c 0.009,0.293991 0.009,0.587982 0,0.877231 -0.19441,6.448832 -5.03103,11.408742 -10.28067,14.642641 -7.64376,4.670662 -17.331231,6.68118 -26.207859,6.870851 C 81.155306,62.64495 71.268678,60.94739 63.193413,56.708232 57.123925,53.531234 50.983309,47.964375 50.926408,40.600378 c 0.02845,-6.832917 5.381929,-12.17217 10.934563,-15.387102 7.842917,-4.528408 17.516165,-6.410898 26.497111,-6.505733 9.066299,-0.01897 18.758518,1.711785 26.753168,6.145357 5.67165,3.105871 11.26649,8.32658 11.5894,15.202172 z" /><line
       style="fill:none;stroke:#000000;stroke-width:0.94835758;stroke-linecap:round;stroke-linejoin:round;stroke-miterlimit:10"
       id="line3759"
       y2="49.296818"
       x2="50.92688"
       y1="40.600376"
       x1="50.92688"
       stroke-miterlimit="10" /><line
       style="fill:none;stroke:#000000;stroke-width:0.94835758;stroke-linecap:round;stroke-linejoin:round;stroke-miterlimit:10"
       id="line3761"
       y2="49.296818"
       x2="23.111555"
       y1="44.934372"
       x1="23.111555"
       stroke-miterlimit="10" /><line
       style="fill:none;stroke:#000000;stroke-width:0.94835758;stroke-linecap:round;stroke-linejoin:round;stroke-miterlimit:10"
       id="line3763"
       y2="14.458901"
       x2="83.479263"
       y1="10.096456"
       x1="83.479263"
       stroke-miterlimit="10" /><line
       style="fill:none;stroke:#000000;stroke-width:0.94835758;stroke-linecap:round;stroke-linejoin:round;stroke-miterlimit:10"
       id="line3765"
       y2="49.296818"
       x2="143.8465"
       y1="44.934372"
       x1="143.8465"
       stroke-miterlimit="10" /><line
       style="fill:none;stroke:#000000;stroke-width:0.94835758;stroke-linecap:round;stroke-linejoin:round;stroke-miterlimit:10"
       id="line3767"
       y2="84.15844"
       x2="83.479263"
       y1="79.795998"
       x1="83.479263"
       stroke-miterlimit="10" /><line
       style="fill:none;stroke:#000000;stroke-width:0.94835758;stroke-linecap:round;stroke-linejoin:round;stroke-miterlimit:10"
       id="line3807"
       y2="129.90721"
       x2="85.039307"
       y1="119.01533"
       x1="66.176476"
       stroke-miterlimit="10" /><line
       style="fill:none;stroke:#000000;stroke-width:0.94835758;stroke-linecap:round;stroke-linejoin:round;stroke-miterlimit:10"
       id="line3811"
       y2="101.59874"
       x2="85.039307"
       y1="53.65926"
       x1="2.0343063"
       stroke-miterlimit="10" /><line
       style="fill:none;stroke:#000000;stroke-width:0.47417879;stroke-linecap:round;stroke-linejoin:round;stroke-miterlimit:10"
       id="line3813"
       y2="80.293884"
       x2="2.0343063"
       y1="55.37579"
       x1="2.0343063"
       stroke-miterlimit="10" /><line
       style="fill:none;stroke:#000000;stroke-width:0.94835758;stroke-linecap:round;stroke-linejoin:round;stroke-miterlimit:10"
       id="line3815"
       y2="91.636246"
       x2="18.753851"
       y1="81.986702"
       x1="2.0343063"
       stroke-miterlimit="10" /><path
       inkscape:connector-curvature="0"
       style="fill:none;stroke:#000000;stroke-width:0.94835758;stroke-linecap:round;stroke-linejoin:round;stroke-miterlimit:10"
       id="path3817"
       d="M 2.034306,81.986704 C 1.2424274,81.488816 0.4789995,80.805998 0.47425771,79.795998"
       stroke-miterlimit="10" /><path
       inkscape:connector-curvature="0"
       style="fill:none;stroke:#000000;stroke-width:0.94835758;stroke-linecap:round;stroke-linejoin:round;stroke-miterlimit:10"
       id="path3819"
       d="m 0.47425771,51.492265 c 0,0.782395 0.51685489,1.56479 1.56004829,2.166997"
       stroke-miterlimit="10" /><path
       inkscape:connector-curvature="0"
       style="fill:none;stroke:#000000;stroke-width:0.94835758;stroke-linecap:round;stroke-linejoin:round;stroke-miterlimit:10"
       id="path3821"
       d="m 2.034306,49.296817 c -0.00474,0.0047 -0.014225,0.0095 -0.018967,0.0095 -1.0242262,0.616432 -1.54108109,1.398827 -1.54108109,2.181222"
       stroke-miterlimit="10" /><line
       style="fill:none;stroke:#000000;stroke-width:0.47417879;stroke-linecap:round;stroke-linejoin:round;stroke-miterlimit:10"
       id="line3827"
       y2="52.933769"
       x2="5.8087692"
       y1="52.231983"
       x1="5.8087692"
       stroke-miterlimit="10" /><polyline
       transform="matrix(0.4741788,0,0,0.4741788,-6.3586588,-3.5788609)"
       style="fill:none;stroke:#000000;stroke-width:2;stroke-linecap:round;stroke-linejoin:round;stroke-miterlimit:10"
       id="polyline3829"
       points="    25.66,120.71 192.07,216.8 192.75,217.19   "
       stroke-miterlimit="10" /><line
       style="fill:none;stroke:#000000;stroke-width:0.94835758;stroke-linecap:round;stroke-linejoin:round;stroke-miterlimit:10"
       id="line3831"
       y2="1.3573403"
       x2="85.039307"
       y1="47.129822"
       x1="5.8087692"
       stroke-miterlimit="10" /><path
       inkscape:connector-curvature="0"
       style="fill:none;stroke:#000000;stroke-width:0.94835758;stroke-linecap:round;stroke-linejoin:round;stroke-miterlimit:10"
       id="path3833"
       d="m 4.248721,49.301559 c 0,0.777653 0.5073713,1.555306 1.5315975,2.166997 0.00948,0.0095 0.018967,0.01423 0.028451,0.01897"
       stroke-miterlimit="10" /><path
       inkscape:connector-curvature="0"
       style="fill:none;stroke:#000000;stroke-width:0.94835758;stroke-linecap:round;stroke-linejoin:round;stroke-miterlimit:10"
       id="path3835"
       d="M 5.8087692,47.12982 C 4.7703176,47.736769 4.248721,48.514422 4.248721,49.296817"
       stroke-miterlimit="10" /><path
       inkscape:connector-curvature="0"
       style="fill:none;stroke:#000000;stroke-width:0.94835758;stroke-linecap:round;stroke-linejoin:round;stroke-miterlimit:10"
       id="path3837"
       d="M 5.8087692,53.659262 C 5.0405996,53.227759 4.2344956,52.431139 4.248721,51.487523"
       stroke-miterlimit="10" /><line
       style="fill:none;stroke:#000000;stroke-width:0.47417879;stroke-linecap:round;stroke-linejoin:round;stroke-miterlimit:10"
       id="line3839"
       y2="97.93808"
       x2="85.039307"
       y1="98.663567"
       x1="85.039307"
       stroke-miterlimit="10" /><line
       style="fill:none;stroke:#000000;stroke-width:0.94835758;stroke-linecap:round;stroke-linejoin:round;stroke-miterlimit:10"
       id="line3841"
       y2="51.463814"
       x2="5.7850604"
       y1="97.236298"
       x1="85.039307"
       stroke-miterlimit="10" /><path
       inkscape:connector-curvature="0"
       style="fill:none;stroke:#000000;stroke-width:0.94835758;stroke-linecap:round;stroke-linejoin:round;stroke-miterlimit:10"
       id="path3843"
       d="m 85.039305,97.236294 c 0.09009,0.04742 0.180188,0.09436 0.275024,0.132296 2.209673,1.053151 5.106905,1.024226 7.254935,-0.123287 0.0047,-0.0047 0.01,-0.0047 0.01423,-0.0095"
       stroke-miterlimit="10" /><line
       style="fill:none;stroke:#000000;stroke-width:0.47417879;stroke-linecap:round;stroke-linejoin:round;stroke-miterlimit:10"
       id="line3845"
       y2="98.682541"
       x2="92.583488"
       y1="97.985497"
       x1="92.583488"
       stroke-miterlimit="10" /><line
       style="fill:none;stroke:#000000;stroke-width:0.94835758;stroke-linecap:round;stroke-linejoin:round;stroke-miterlimit:10"
       id="line3847"
       y2="53.635555"
       x2="171.83772"
       y1="99.408035"
       x1="92.583488"
       stroke-miterlimit="10" /><path
       inkscape:connector-curvature="0"
       style="fill:none;stroke:#000000;stroke-width:0.94835758;stroke-linecap:round;stroke-linejoin:round;stroke-miterlimit:10"
       id="path3849"
       d="m 92.58349,99.408033 c -2.029486,1.209157 -5.505216,1.194927 -7.544185,0"
       stroke-miterlimit="10" /><line
       style="fill:none;stroke:#000000;stroke-width:0.47417879;stroke-linecap:round;stroke-linejoin:round;stroke-miterlimit:10"
       id="line3851"
       y2="52.189308"
       x2="171.83772"
       y1="52.910057"
       x1="171.83772"
       stroke-miterlimit="10" /><line
       style="fill:none;stroke:#000000;stroke-width:0.94835758;stroke-linecap:round;stroke-linejoin:round;stroke-miterlimit:10"
       id="line3853"
       y2="97.236298"
       x2="92.564522"
       y1="51.487522"
       x1="171.83772"
       stroke-miterlimit="10" /><path
       inkscape:connector-curvature="0"
       style="fill:none;stroke:#000000;stroke-width:0.94835758;stroke-linecap:round;stroke-linejoin:round;stroke-miterlimit:10"
       id="path3855"
       d="m 171.83773,51.487523 c 0.97729,-0.578498 1.49841,-1.303992 1.56005,-2.038969 0.0669,-0.829813 -0.45521,-1.673851 -1.56005,-2.318734"
       stroke-miterlimit="10" /><path
       inkscape:connector-curvature="0"
       style="fill:none;stroke:#000000;stroke-width:0.94835758;stroke-linecap:round;stroke-linejoin:round;stroke-miterlimit:10"
       id="path3857"
       d="m 173.39778,51.487523 c 0.0142,0.938874 -0.78713,1.735495 -1.55056,2.166997 -0.005,0 -0.005,0.0047 -0.01,0.0047"
       stroke-miterlimit="10" /><line
       style="fill:none;stroke:#000000;stroke-width:0.94835758;stroke-linecap:round;stroke-linejoin:round;stroke-miterlimit:10"
       id="line3859"
       y2="47.129822"
       x2="171.83772"
       y1="1.3763075"
       x1="92.583488"
       stroke-miterlimit="10" /><path
       inkscape:connector-curvature="0"
       style="fill:none;stroke:#000000;stroke-width:0.94835758;stroke-linecap:round;stroke-linejoin:round;stroke-miterlimit:10"
       id="path3861"
       d="m 92.58349,1.3763076 c -2.025218,-1.20915598 -5.495733,-1.19493062 -7.534702,-0.00474 -0.0047,0 -0.0047,0.00474 -0.0095,0.00474"
       stroke-miterlimit="10" /><polyline
       transform="matrix(0.4741788,0,0,0.4741788,-6.3586588,-3.5788609)"
       style="fill:none;stroke:#000000;stroke-width:2;stroke-linecap:round;stroke-linejoin:round;stroke-miterlimit:10"
       id="polyline3863"
       points="    208.66,281.51 328.74,212.18 338.719,206.42 343.74,203.52 343.74,203.51 383.76,180.41   "
       stroke-miterlimit="10" /><polyline
       transform="matrix(0.4741788,0,0,0.4741788,-6.3586588,-3.5788609)"
       style="fill:none;stroke:#000000;stroke-width:2;stroke-linecap:round;stroke-linejoin:round;stroke-miterlimit:10"
       id="polyline3865"
       points="    14.41,116.13 14.41,116.14 14.41,175.83   "
       stroke-miterlimit="10" /><line
       style="fill:none;stroke:#000000;stroke-width:0.47417879;stroke-linecap:round;stroke-linejoin:round;stroke-miterlimit:10"
       id="line3867"
       y2="128.2144"
       x2="92.583488"
       y1="103.31526"
       x1="92.583488"
       stroke-miterlimit="10" /><path
       inkscape:connector-curvature="0"
       style="fill:none;stroke:#000000;stroke-width:0.94835758;stroke-linecap:round;stroke-linejoin:round;stroke-miterlimit:10"
       id="path3869"
       d="m 92.58349,129.90721 c -2.029486,1.20916 -5.505216,1.19968 -7.544185,0"
       stroke-miterlimit="10" /><line
       style="fill:none;stroke:#000000;stroke-width:0.47417879;stroke-linecap:round;stroke-linejoin:round;stroke-miterlimit:10"
       id="line3871"
       y2="103.26785"
       x2="85.039307"
       y1="128.19069"
       x1="85.039307"
       stroke-miterlimit="10" /><path
       inkscape:connector-curvature="0"
       style="fill:none;stroke:#000000;stroke-width:0.94835758;stroke-linecap:round;stroke-linejoin:round;stroke-miterlimit:10"
       id="path3873"
       d="m 85.039305,101.59874 c 2.238124,1.1807 5.291835,1.19967 7.529959,0.01 0.0047,-0.005 0.01,-0.005 0.01423,-0.01"
       stroke-miterlimit="10" /><polyline
       transform="matrix(0.4741788,0,0,0.4741788,-6.3586588,-3.5788609)"
       style="fill:none;stroke:#000000;stroke-width:2;stroke-linecap:round;stroke-linejoin:round;stroke-miterlimit:10"
       id="polyline3875"
       points="    22.37,111.51 22.37,111.52 22.37,116.13   "
       stroke-miterlimit="10" /><polyline
       transform="matrix(0.4741788,0,0,0.4741788,-6.3586588,-3.5788609)"
       style="fill:none;stroke:#000000;stroke-width:2;stroke-linecap:round;stroke-linejoin:round;stroke-miterlimit:10"
       id="polyline3877"
       points="    383.76,111.51 375.809,106.92 375.76,106.89   "
       stroke-miterlimit="10" /><path
       inkscape:connector-curvature="0"
       style="fill:none;stroke:#000000;stroke-width:0.94835758;stroke-linecap:round;stroke-linejoin:round;stroke-miterlimit:10"
       id="path3879"
       d="m 177.17225,79.795998 c 0.01,0.991033 -0.78714,1.692818 -1.55057,2.185964 -0.005,0 -0.005,0.0047 -0.01,0.0047"
       stroke-miterlimit="10" /><line
       style="fill:none;stroke:#000000;stroke-width:0.47417879;stroke-linecap:round;stroke-linejoin:round;stroke-miterlimit:10"
       id="line3881"
       y2="55.328373"
       x2="175.6122"
       y1="80.27018"
       x1="175.6122"
       stroke-miterlimit="10" /><line
       style="fill:none;stroke:#000000;stroke-width:0.94835758;stroke-linecap:round;stroke-linejoin:round;stroke-miterlimit:10"
       id="line3883"
       y2="101.59874"
       x2="92.564522"
       y1="53.65926"
       x1="175.6122"
       stroke-miterlimit="10" /><path
       inkscape:connector-curvature="0"
       style="fill:none;stroke:#000000;stroke-width:0.94835758;stroke-linecap:round;stroke-linejoin:round;stroke-miterlimit:10"
       id="path3885"
       d="m 175.6122,53.659262 c 0.97728,-0.58324 1.4984,-1.294508 1.56005,-2.020002 0.0669,-0.825071 -0.45522,-1.664367 -1.56005,-2.342443"
       stroke-miterlimit="10" /><line
       style="fill:none;stroke:#000000;stroke-width:0.94835758;stroke-linecap:round;stroke-linejoin:round;stroke-miterlimit:10"
       id="line3887"
       y2="49.296818"
       x2="2.0105968"
       y1="47.129822"
       x1="5.8087692"
       stroke-miterlimit="10" /><polyline
       transform="matrix(0.4741788,0,0,0.4741788,-6.3586588,-3.5788609)"
       style="fill:none;stroke:#000000;stroke-width:2;stroke-linecap:round;stroke-linejoin:round;stroke-miterlimit:10"
       id="polyline3889"
       points="    379.09,116.13 379.09,111.83 379.09,111.46   "
       stroke-miterlimit="10" /><polyline
       transform="matrix(0.4741788,0,0,0.4741788,-6.3586588,-3.5788609)"
       style="fill:none;stroke:#000000;stroke-width:2;stroke-linecap:round;stroke-linejoin:round;stroke-miterlimit:10"
       id="polyline3901"
       points="    387.05,175.83 387.05,116.45 387.05,116.08   "
       stroke-miterlimit="10" /><path
       inkscape:connector-curvature="0"
       style="fill:none;stroke:#000000;stroke-width:0.94835758;stroke-linecap:round;stroke-linejoin:round;stroke-miterlimit:10"
       id="path3927"
       d="m 50.926882,40.600378 c 0.02845,-6.832917 5.381929,-12.17217 10.934563,-15.387102 7.842918,-4.528408 17.516165,-6.410898 26.497112,-6.505733 9.066298,-0.01897 18.758513,1.711785 26.753163,6.145357 5.67118,3.105871 11.26649,8.32658 11.58893,15.202172 0.009,0.293991 0.009,0.587982 0,0.877231 -0.19441,6.448832 -5.03103,11.408742 -10.28067,14.642641 -7.64376,4.670662 -17.331231,6.68118 -26.207859,6.870851 C 81.155306,62.64495 71.268678,60.94739 63.193413,56.708232 57.124399,53.531234 50.983783,47.964375 50.926882,40.600378"
       stroke-miterlimit="10" /><path
       inkscape:connector-curvature="0"
       style="fill:none;stroke:#000000;stroke-width:0.94835758;stroke-linecap:round;stroke-linejoin:round;stroke-miterlimit:10"
       id="path3929"
       d="m 50.926882,49.296817 c 0.06164,6.932494 5.453056,12.257522 11.114751,15.477196 7.95672,4.5616 17.672644,6.372963 26.772135,6.415639 9.108975,-0.03793 18.820152,-1.854039 26.791102,-6.415639 5.60954,-3.195965 11.09104,-8.577894 11.09578,-15.477196"
       stroke-miterlimit="10" /><path
       inkscape:connector-curvature="0"
       style="fill:none;stroke:#000000;stroke-width:0.94835758;stroke-linecap:round;stroke-linejoin:round;stroke-miterlimit:10"
       id="path3931"
       d="m 33.775835,44.934372 c -0.289249,4.11113 -10.360807,4.106389 -10.664281,0"
       stroke-miterlimit="10" /><path
       inkscape:connector-curvature="0"
       style="fill:none;stroke:#000000;stroke-width:0.94835758;stroke-linecap:round;stroke-linejoin:round;stroke-miterlimit:10"
       id="path3933"
       d="m 23.111554,44.934372 c 0.331925,-4.073196 10.31813,-4.082679 10.664281,-0.01897"
       stroke-miterlimit="10" /><path
       inkscape:connector-curvature="0"
       style="fill:none;stroke:#000000;stroke-width:0.94835758;stroke-linecap:round;stroke-linejoin:round;stroke-miterlimit:10"
       id="path3935"
       d="m 23.111554,49.296817 c 0.298732,4.101647 10.384515,4.106388 10.664281,0"
       stroke-miterlimit="10" /><path
       inkscape:connector-curvature="0"
       style="fill:none;stroke:#000000;stroke-width:0.94835758;stroke-linecap:round;stroke-linejoin:round;stroke-miterlimit:10"
       id="path3937"
       d="m 94.167247,10.096456 c -0.341409,4.077937 -10.346582,4.092163 -10.68799,0"
       stroke-miterlimit="10" /><path
       inkscape:connector-curvature="0"
       style="fill:none;stroke:#000000;stroke-width:0.94835758;stroke-linecap:round;stroke-linejoin:round;stroke-miterlimit:10"
       id="path3939"
       d="m 83.479257,10.096456 c 0.303474,-4.1016469 10.356065,-4.0874216 10.68799,-0.01897"
       stroke-miterlimit="10" /><path
       inkscape:connector-curvature="0"
       style="fill:none;stroke:#000000;stroke-width:0.94835758;stroke-linecap:round;stroke-linejoin:round;stroke-miterlimit:10"
       id="path3941"
       d="m 83.479257,14.458901 c 0.341408,4.087421 10.346581,4.077937 10.68799,0"
       stroke-miterlimit="10" /><path
       inkscape:connector-curvature="0"
       style="fill:none;stroke:#000000;stroke-width:0.94835758;stroke-linecap:round;stroke-linejoin:round;stroke-miterlimit:10"
       id="path3943"
       d="m 154.53448,44.934372 c -0.30348,4.11113 -10.38405,4.101647 -10.68799,0"
       stroke-miterlimit="10" /><path
       inkscape:connector-curvature="0"
       style="fill:none;stroke:#000000;stroke-width:0.94835758;stroke-linecap:round;stroke-linejoin:round;stroke-miterlimit:10"
       id="path3945"
       d="m 143.84649,44.934372 c 0.34188,-4.068454 10.31338,-4.087421 10.68799,-0.01897"
       stroke-miterlimit="10" /><line
       style="fill:none;stroke:#000000;stroke-width:0.94835758;stroke-linecap:round;stroke-linejoin:round;stroke-miterlimit:10"
       id="line3947"
       y2="113.41528"
       x2="56.484257"
       y1="97.236298"
       x1="28.446066"
       stroke-miterlimit="10" /><path
       inkscape:connector-curvature="0"
       style="fill:none;stroke:#000000;stroke-width:0.94835758;stroke-linecap:round;stroke-linejoin:round;stroke-miterlimit:10"
       id="path3955"
       d="m 143.84649,49.296817 c 0.2992,4.087421 10.38451,4.11113 10.68799,0"
       stroke-miterlimit="10" /><path
       inkscape:connector-curvature="0"
       style="fill:none;stroke:#000000;stroke-width:0.94835758;stroke-linecap:round;stroke-linejoin:round;stroke-miterlimit:10"
       id="path3957"
       d="m 83.479257,79.795998 c 0.341408,-4.087422 10.346581,-4.077938 10.68799,0 -0.341409,4.092163 -10.34184,4.11113 -10.68799,0"
       stroke-miterlimit="10" /><path
       inkscape:connector-curvature="0"
       style="fill:none;stroke:#000000;stroke-width:0.94835758;stroke-linecap:round;stroke-linejoin:round;stroke-miterlimit:10"
       id="path3959"
       d="m 83.479257,84.158442 c 0.350892,4.096905 10.337097,4.087422 10.68799,0"
       stroke-miterlimit="10" /><polyline
       transform="matrix(0.4741788,0,0,0.4741788,-6.3586588,-3.5788609)"
       style="fill:none;stroke:#000000;stroke-width:2;stroke-linecap:round;stroke-linejoin:round;stroke-miterlimit:10"
       id="polyline3967"
       points="    280.61,111.51 280.61,93.87 280.61,93.12   "
       stroke-miterlimit="10" /><polyline
       transform="matrix(0.4741788,0,0,0.4741788,-6.3586588,-3.5788609)"
       style="fill:none;stroke:#000000;stroke-width:2;stroke-linecap:round;stroke-linejoin:round;stroke-miterlimit:10"
       id="polyline3977"
       points="    84.64,111.51 84.64,102.31 84.64,102.27   "
       stroke-miterlimit="10" /><polyline
       transform="matrix(0.4741788,0,0,0.4741788,-6.3586588,-3.5788609)"
       style="fill:none;stroke:#000000;stroke-width:2;stroke-linecap:round;stroke-linejoin:round;stroke-miterlimit:10"
       id="polyline3979"
       points="    212,38.04 212,28.84 212,28.8   "
       stroke-miterlimit="10" /><polyline
       transform="matrix(0.4741788,0,0,0.4741788,-6.3586588,-3.5788609)"
       style="fill:none;stroke:#000000;stroke-width:2;stroke-linecap:round;stroke-linejoin:round;stroke-miterlimit:10"
       id="polyline3981"
       points="    339.309,111.51 339.309,102.31 339.309,102.27   "
       stroke-miterlimit="10" /><polyline
       transform="matrix(0.4741788,0,0,0.4741788,-6.3586588,-3.5788609)"
       style="fill:none;stroke:#000000;stroke-width:2;stroke-linecap:round;stroke-linejoin:round;stroke-miterlimit:10"
       id="polyline3983"
       points="    212,185.03 212,175.83 212,175.78   "
       stroke-miterlimit="10" /><path
       inkscape:connector-curvature="0"
       style="overflow:visible;fill:#2e3436;fill-opacity:1"
       id="path3733-6"
       d="m 70.386025,108.32242 c -1.218639,1.19019 -2.114837,2.81615 -2.14803,4.54263 0,0.009 0,0.0138 0,0.0237 l 0,7.09372 -0.0047,0.0142 -7.539442,-4.36244 0,-0.0142 0,-2.46051 0,-4.6332 c 0,-0.009 0,-0.0142 0,-0.0237 0.03319,-1.72649 0.92939,-3.35244 2.143288,-4.53788 l 7.548926,4.35769 z" /><line
       style="overflow:visible;fill:none;stroke:#000000;stroke-width:0.94835758;stroke-linecap:round;stroke-linejoin:round;stroke-miterlimit:10"
       id="line3947-9"
       y2="121.30763"
       x2="70.057304"
       y1="105.12865"
       x1="42.019115"
       stroke-miterlimit="10" /><path
       inkscape:connector-curvature="0"
       style="overflow:visible;fill:#2e3436;fill-opacity:1"
       id="path3705-6"
       d="m 20.013275,79.201751 7.548926,4.357229 c -1.156996,1.047935 -2.176481,3.006294 -2.14803,4.590525 l 0,7.112682 -7.544185,-4.357703 0,-2.484697 0,-4.632727 c -0.02845,-1.602724 1.000518,-3.513665 2.143289,-4.585309 z" /><line
       style="overflow:visible;fill:none;stroke:#000000;stroke-width:0.94835758;stroke-linecap:round;stroke-linejoin:round;stroke-miterlimit:10"
       id="line3947-2"
       y2="106.45839"
       x2="44.513077"
       y1="90.279404"
       x1="16.474886"
       stroke-miterlimit="10" /></g></svg>